<svg width="287" height="427" viewBox="0 0 287 427" fill="none" xmlns="http://www.w3.org/2000/svg">
<path d="M28.6001 204C28.2001 223.8 27.7 243.6 27.3 263.4C26.2 314.5 25.3 365.6 24.5 416.7L47.9001 416.7C47.9001 416.7 76.7999 322.1 82.6999 226.4C82.6999 226.4 95.5001 291.5 87.9001 416.7L111.3 416.7C116.8 397.9 121.7 377.1 125.3 354.4C134.6 297.1 133 246.3 128.1 206.3C95.0001 205.6 61.8001 204.8 28.6001 204Z" fill="#3072E4"/>
<path d="M53.4001 402.2L23 402.2L23 416.7L51.6999 416.7L53.4001 402.2Z" fill="#082E9F"/>
<path d="M116.7 402.2L86.3003 402.2L86.3003 416.7L115 416.7L116.7 402.2Z" fill="#082E9F"/>
<path d="M48 221.2C48 221.2 42.7 231.1 32 232" stroke="white" stroke-width="0.25" stroke-miterlimit="10"/>
<path d="M29.1001 402.2L38.1999 230.4" stroke="white" stroke-width="0.25" stroke-miterlimit="10"/>
<path d="M109.7 402.2C109.7 402.2 133.5 302 130.5 229.4" stroke="white" stroke-width="0.25" stroke-miterlimit="10"/>
<path d="M47.8078 416.7C47.8078 416.7 55.8078 416.7 60.4078 426.7L34.9078 426.7L33.5078 425.6L32.4078 426.7L24.5078 426.7L24.5078 416.7L47.8078 416.7Z" fill="#4B2413"/>
<path d="M111 416.7C111 416.7 119 416.7 123.6 426.7L98.1001 426.7L96.7001 425.6L95.6001 426.7L87.7001 426.7L87.7001 416.7L111 416.7Z" fill="url(#paint0_linear_121_16456)"/>
<path d="M24.4077 426.7L32.3077 426.7L33.5077 425.6L34.9077 426.7L60.4077 426.7L59.4077 424.8L24.4077 424.8L24.4077 426.7Z" fill="#080808"/>
<path d="M87.6 426.7L95.5 426.7L96.7 425.6L98.1 426.7L123.6 426.7L122.6 424.8L87.6 424.8L87.6 426.7Z" fill="#080808"/>
<path d="M194.337 132.59L194.337 125.05C196.443 123.101 198.183 120.791 199.477 118.23C200.367 116.47 202.268 112.69 201.318 111.8C200.368 110.91 197.387 112.11 186.437 121.11C186.547 120.69 187.337 117.31 185.167 114.98C184.697 114.48 183.987 113.71 183.337 113.85C182.407 114.05 181.447 116.13 181.597 125.1C181.597 126.01 181.597 127.44 181.597 129.2C181.727 133.49 179.597 136.94 178.297 138.83C173.907 145.43 163.297 149.09 155.097 145.7C150.097 143.62 147.437 139.5 145.097 135.95C142.527 131.95 141.418 128.09 139.288 120.57C137.978 115.93 137.117 112.05 136.587 109.4L112.337 113.46L108.887 131.7C106.887 154.01 118.218 174.25 136.118 181.8C142.077 184.29 148.526 185.385 154.973 185.002C161.42 184.619 167.695 182.768 173.318 179.59C188.768 170.7 197.277 152.02 194.337 132.59Z" fill="#F2B48A"/>
<path d="M183.423 124.958C183.584 125.231 183.724 125.405 184.038 125.44L190.641 127.597C191.291 127.764 191.954 127.519 192.24 126.946L202.187 109.97C202.32 109.635 202.452 109.3 202.27 108.93L201.703 107.722L183.094 123.904L183.423 124.958Z" fill="#003242"/>
<path d="M183.828 124.462L190.388 126.425C190.821 126.536 191.191 126.354 191.421 125.998L201.446 108.903C201.655 108.449 201.529 107.862 201.075 107.653C200.956 107.576 200.837 107.5 200.739 107.521L194.061 106.914C193.747 106.879 193.377 107.061 193.224 107.299L183.316 123.038C183.107 123.492 183.234 124.079 183.688 124.288C183.709 124.386 183.709 124.386 183.828 124.462Z" fill="white" stroke="#2F5F71" stroke-width="0.5" stroke-miterlimit="10"/>
<path d="M195.263 107.268L195.279 108.288L198.205 108.578L199.643 107.655L195.263 107.268Z" fill="#2F5F71"/>
<path d="M150.306 126.979L190.116 126.586C190.724 126.557 191.289 126.333 191.673 125.739L201.335 109.336C201.642 108.861 201.613 108.253 201.291 107.709L184.505 73.4765L150.306 126.979Z" fill="url(#paint1_linear_121_16456)"/>
<path d="M30.2797 216.013C41.2312 217.687 52.2771 218.573 63.3229 218.868C79.4669 219.163 94.1003 219.459 111.849 213.848C117.042 212.174 121.668 209.32 124.5 208.04C110.527 205.481 95.5164 204.201 80.1278 202.134C63.4173 199.969 44.8887 199.181 29.5 198C30 203.5 28.958 208.828 30.2797 216.013Z" fill="url(#paint2_linear_121_16456)"/>
<path d="M39.5 120L3.5 112C16.1818 73.9545 40.1508 56.9423 83.5 56.5C92.5 56.5 105.178 59.46 118.5 68.5C132.5 78 137.5 98.5 137.5 109L131 111L128.5 206.5C104.1 219.7 51.6667 213.167 30 209C26.4 187.4 35.1667 140.667 39.5 120Z" fill="#F94F46"/>
<path d="M61.6056 58.4336C61.6056 59.7218 61.6657 61.0557 62.3098 62.8806C64.5641 69.2141 71.7564 73.7227 78.8413 73.7227C87.2144 73.7227 95.5876 67.3892 96.017 61.0557C96.1243 59.8749 95.9096 58.8014 95.6949 58.0499C91.9377 56.8691 86.8985 56.4562 81.1018 56.2415C72.6213 55.9195 66.1142 57.1454 61.6056 58.4336Z" fill="#F6B247"/>
<path d="M6.31548 113.1L46.8155 116.1C36.5655 151.844 30.4982 187.17 28.5155 224.3C30.9371 225.231 37.8688 232.572 34.6155 235.5C31.9438 237.103 30.8795 232.988 31.1155 231.1C30.6944 235.732 35.3979 243.912 30.8155 247.1C28.2155 248.9 24.1155 246.3 23.1155 245.7C-9.05839 225.783 -0.316029 142.747 6.31548 113.1Z" fill="#F2B48A"/>
<path d="M50 116.1L4.39999 105.4L1 115.3L47.6 126.3L50 116.1Z" fill="#F6B247"/>
<path d="M138.4 106.2L128.7 109.1L129 120L141.4 116.3L138.4 106.2Z" fill="#F6B247"/>
<path d="M92.5895 13.7269L76.4895 13.7269C71.7895 13.7269 67.9895 17.5269 67.9895 22.3269L67.9895 29.1269C67.3895 28.8269 66.6895 28.8269 66.0895 28.9269C63.7895 29.4269 62.4895 32.5269 63.1895 35.9269C63.7895 38.9269 65.8895 41.1269 67.9895 41.1269L67.9895 64.9269C71.2895 67.9269 75.6895 69.4269 80.1895 69.3269C83.9895 69.1269 87.5895 67.5269 90.4895 64.9269L90.4895 49.1269L92.6895 49.1269C97.3895 49.1269 101.189 45.3269 101.189 40.5269L102.189 14.2269C102.189 9.52689 97.2895 13.7269 92.5895 13.7269Z" fill="#FFC299"/>
<path opacity="0.1" d="M77.396 48.626L90.496 49.126L90.496 54.426C85.496 54.626 80.596 52.426 77.396 48.626Z" fill="black"/>
<path d="M70.4593 35.0001L73.5593 34.9001C73.5593 34.9001 72.0594 20.0001 75.7594 18.8001C85.2094 15.7351 112.678 24.6081 106.759 3.30029C103.596 4.88179 99.9803 5.90689 96.4593 6.20029C77.3403 8.42769 61.7524 4.11159 66.2594 28.9001C67.2594 29.0001 68.1593 29.4001 68.9593 30.1001C70.2593 31.3001 70.7593 33.2001 70.4593 35.0001Z" fill="black"/>
<path d="M73.5596 22.1001C74.0626 19.2781 75.3706 15.2891 78.6896 13.5381C83.7176 10.9109 88.8466 15.4841 95.5856 13.8301C98.6026 13.1491 102.626 10.9109 106.548 4.1001C106.649 7.5055 106.246 15.2891 101.117 18.5001C98.6026 20.0571 95.7866 19.9591 90.9586 19.8621C83.1146 19.6681 78.6896 17.5271 75.1696 20.1541C74.5656 20.6411 73.9626 21.3221 73.5596 22.1001Z" fill="black"/>
<path d="M229.335 306.574L228.235 300.164L246.405 282.454C247.176 281.702 247.454 280.578 247.121 279.554C246.788 278.53 245.903 277.784 244.838 277.629L219.729 273.981L208.499 251.228C208.023 250.263 207.04 249.651 205.964 249.651C204.887 249.651 203.904 250.262 203.428 251.228L192.198 273.981L167.089 277.629C166.024 277.784 165.139 278.53 164.806 279.554C164.474 280.578 164.751 281.702 165.522 282.454L183.692 300.164L179.402 325.172C179.22 326.232 179.656 327.305 180.527 327.938C181.398 328.57 182.553 328.654 183.506 328.153L205.964 316.346L228.422 328.153C228.836 328.371 229.287 328.478 229.738 328.478C230.324 328.478 230.907 328.295 231.4 327.938C232.272 327.305 232.707 326.232 232.526 325.172L230.743 314.777" fill="#FFD960"/>
<g opacity="0.2">
<path d="M187.055 322.887L190.956 300.149C190.956 300.149 190.956 300.149 190.956 300.148C191.318 298.038 189.909 296.479 189.909 296.479L173.175 280.169C172.405 279.417 172.127 278.293 172.46 277.269C172.511 277.111 172.579 276.963 172.655 276.82L167.088 277.629C166.024 277.784 165.138 278.53 164.805 279.554C164.473 280.577 164.75 281.702 165.521 282.453L183.691 300.164L179.401 325.172C179.22 326.232 179.656 327.305 180.527 327.937C181.398 328.57 182.552 328.654 183.505 328.152L188.218 325.675C188.206 325.667 188.193 325.66 188.181 325.652C187.31 325.02 186.874 323.948 187.055 322.887Z" fill="#231F20"/>
</g>
<path d="M182.744 227.818C182.596 227.364 182.204 227.033 181.733 226.965L170.609 225.348L165.634 215.269C165.423 214.841 164.987 214.57 164.51 214.57C164.033 214.57 163.598 214.841 163.387 215.269L158.412 225.348L147.288 226.965C146.817 227.034 146.424 227.364 146.277 227.818C146.13 228.271 146.252 228.769 146.594 229.102L154.643 236.948L152.743 248.027C152.662 248.497 152.855 248.972 153.241 249.252C153.627 249.533 154.139 249.57 154.561 249.347L164.51 244.117L174.46 249.347C174.643 249.444 174.843 249.491 175.043 249.491C175.303 249.491 175.561 249.41 175.78 249.252C176.165 248.972 176.358 248.497 176.278 248.027L174.378 236.948L182.427 229.102C182.768 228.769 182.891 228.271 182.744 227.818Z" fill="#FFD960"/>
<path d="M219.623 355.192C219.513 354.852 219.219 354.604 218.865 354.553L210.532 353.342L206.805 345.791C206.647 345.47 206.321 345.268 205.963 345.268C205.606 345.268 205.28 345.47 205.122 345.791L201.395 353.342L193.062 354.553C192.708 354.604 192.414 354.852 192.304 355.192C192.193 355.531 192.286 355.905 192.542 356.154L198.572 362.033L197.148 370.332C197.088 370.684 197.232 371.04 197.522 371.25C197.811 371.46 198.194 371.488 198.51 371.321L205.964 367.402L213.418 371.321C213.555 371.393 213.705 371.429 213.854 371.429C214.048 371.429 214.243 371.369 214.406 371.25C214.695 371.04 214.84 370.684 214.78 370.332L213.356 362.032L219.387 356.154C219.642 355.905 219.733 355.531 219.623 355.192Z" fill="#FFD960"/>
<g opacity="0.2">
<path d="M160.625 245.971L162.526 234.892L154.476 227.046C154.188 226.764 154.057 226.364 154.113 225.974L147.288 226.966C146.817 227.034 146.424 227.365 146.277 227.818C146.13 228.271 146.253 228.769 146.594 229.102L154.643 236.948L152.743 248.028C152.662 248.498 152.855 248.972 153.241 249.253C153.627 249.533 154.139 249.57 154.561 249.348L160.609 246.168C160.61 246.103 160.614 246.037 160.625 245.971Z" fill="#231F20"/>
</g>
<g opacity="0.2">
<path d="M206.454 359.976L200.424 354.098C200.264 353.942 200.177 353.737 200.154 353.522L193.062 354.553C192.708 354.604 192.414 354.852 192.303 355.192C192.193 355.531 192.285 355.905 192.541 356.154L198.572 362.033L197.148 370.332C197.088 370.684 197.232 371.04 197.521 371.25C197.81 371.46 198.194 371.488 198.51 371.321L205.103 367.855L206.454 359.976Z" fill="#231F20"/>
</g>
<path d="M265.708 315.176C270.238 315.176 273.91 311.505 273.91 306.975C273.91 302.446 270.238 298.774 265.708 298.774C261.179 298.774 257.507 302.446 257.507 306.975C257.507 311.505 261.179 315.176 265.708 315.176Z" fill="#FFD960"/>
<path d="M146.294 328.467C150.823 328.467 154.495 324.796 154.495 320.266C154.495 315.737 150.823 312.065 146.294 312.065C141.764 312.065 138.092 315.737 138.092 320.266C138.092 324.796 141.764 328.467 146.294 328.467Z" fill="#FFD960"/>
<g opacity="0.2">
<path d="M265.708 306.977C265.708 303.941 267.358 301.293 269.809 299.875C268.602 299.177 267.203 298.775 265.708 298.775C261.178 298.775 257.507 302.447 257.507 306.977C257.507 311.506 261.178 315.178 265.708 315.178C267.202 315.178 268.602 314.776 269.809 314.078C267.358 312.66 265.708 310.012 265.708 306.977Z" fill="#231F20"/>
</g>
<g opacity="0.2">
<path d="M146.292 320.265C146.292 317.229 147.942 314.581 150.393 313.163C149.186 312.465 147.786 312.063 146.292 312.063C141.762 312.063 138.091 315.735 138.091 320.265C138.091 324.794 141.762 328.466 146.292 328.466C147.786 328.466 149.186 328.064 150.393 327.366C147.942 325.948 146.292 323.3 146.292 320.265Z" fill="#231F20"/>
</g>
<path d="M182.184 331.055C181.069 331.055 179.962 330.705 179.016 330.018C177.342 328.801 176.518 326.779 176.868 324.739L180.929 301.062L163.727 284.294C162.245 282.849 161.721 280.729 162.361 278.76C163 276.792 164.669 275.384 166.718 275.086L190.491 271.632L201.122 250.09C202.038 248.234 203.893 247.081 205.963 247.081C208.033 247.081 209.889 248.234 210.804 250.091L221.435 271.632L245.207 275.086C247.256 275.384 248.926 276.792 249.565 278.76C250.205 280.729 249.682 282.85 248.199 284.294L230.997 301.061L231.868 306.139C232.109 307.538 231.169 308.867 229.77 309.106C228.367 309.347 227.042 308.407 226.802 307.008L225.702 300.598C225.559 299.764 225.835 298.913 226.441 298.323L244.611 280.612C244.682 280.543 244.707 280.442 244.676 280.348C244.646 280.254 244.566 280.187 244.468 280.172L219.359 276.524C218.522 276.403 217.798 275.877 217.423 275.118L206.194 252.365C206.108 252.189 205.818 252.191 205.733 252.364L194.503 275.118C194.128 275.877 193.405 276.403 192.568 276.524L167.458 280.172C167.362 280.186 167.28 280.255 167.251 280.347C167.221 280.441 167.246 280.544 167.316 280.612L185.485 298.322C186.091 298.913 186.368 299.764 186.224 300.598L181.934 325.605C181.918 325.701 181.958 325.8 182.037 325.857C182.116 325.914 182.222 325.922 182.308 325.877L204.767 314.07C205.516 313.676 206.41 313.676 207.159 314.07L229.617 325.877C229.69 325.915 229.769 325.943 229.889 325.857C229.969 325.799 230.008 325.702 229.991 325.604L228.209 315.211C227.968 313.811 228.908 312.483 230.307 312.243C231.709 312.003 233.035 312.943 233.275 314.342L235.058 324.737C235.408 326.778 234.584 328.801 232.909 330.017C231.98 330.691 230.884 331.047 229.736 331.047C228.863 331.047 227.994 330.833 227.223 330.426L205.962 319.249L184.7 330.427C183.904 330.847 183.042 331.055 182.184 331.055Z" fill="#231F20"/>
<path d="M153.978 252.062C153.165 252.062 152.388 251.81 151.731 251.332C150.544 250.47 149.962 249.037 150.21 247.593L151.882 237.846L144.799 230.943C143.75 229.918 143.379 228.417 143.832 227.024C144.285 225.629 145.468 224.632 146.919 224.421L156.705 222.999L161.082 214.131C161.73 212.817 163.044 212 164.51 212C165.976 212 167.29 212.817 167.939 214.132L172.315 222.999L182.102 224.421C183.553 224.632 184.736 225.629 185.188 227.024C185.641 228.417 185.27 229.918 184.221 230.942L177.138 237.845L178.81 247.593C179.058 249.038 178.475 250.469 177.29 251.331C176.631 251.81 175.854 252.062 175.042 252.062C174.426 252.062 173.811 251.91 173.265 251.624L164.509 247.021L155.756 251.623C155.211 251.91 154.595 252.062 153.978 252.062ZM164.51 241.547C164.921 241.547 165.331 241.645 165.706 241.842L173.292 245.831L171.843 237.383C171.7 236.549 171.976 235.698 172.582 235.107L178.719 229.125L170.238 227.892C169.401 227.771 168.677 227.245 168.302 226.486L164.51 218.8L160.716 226.486C160.342 227.244 159.618 227.77 158.781 227.892L150.299 229.124L156.437 235.107C157.043 235.698 157.32 236.549 157.176 237.382L155.727 245.83L163.313 241.842C163.688 241.645 164.099 241.547 164.51 241.547Z" fill="#231F20"/>
<path d="M198.073 374C197.328 374 196.614 373.769 196.011 373.33C194.923 372.539 194.388 371.225 194.614 369.899L195.81 362.929L190.747 357.994C189.783 357.056 189.443 355.678 189.858 354.398C190.274 353.117 191.36 352.203 192.691 352.009L199.688 350.992L202.817 344.653C203.412 343.446 204.618 342.697 205.963 342.697C207.291 342.697 208.527 343.467 209.112 344.658L212.239 350.992L219.235 352.009C220.566 352.203 221.652 353.117 222.068 354.397C222.484 355.678 222.143 357.057 221.177 357.997L216.117 362.929L217.312 369.897C217.538 371.227 217.002 372.54 215.916 373.329C214.874 374.091 213.374 374.203 212.221 373.597L205.963 370.306L199.705 373.596C199.204 373.861 198.639 374 198.073 374ZM205.963 364.833C206.374 364.833 206.785 364.931 207.159 365.128L211.687 367.508L210.822 362.468C210.679 361.634 210.955 360.783 211.561 360.193L215.224 356.623L210.162 355.888C209.325 355.766 208.601 355.24 208.227 354.482L205.964 349.896L203.701 354.482C203.326 355.24 202.603 355.766 201.765 355.888L196.704 356.623L200.366 360.193C200.972 360.783 201.249 361.634 201.106 362.468L200.241 367.508L204.768 365.128C205.141 364.931 205.552 364.833 205.963 364.833Z" fill="#231F20"/>
<path d="M265.708 317.749C259.769 317.749 254.936 312.916 254.936 306.977C254.936 301.037 259.769 296.205 265.708 296.205C271.647 296.205 276.48 301.037 276.48 306.977C276.48 312.916 271.647 317.749 265.708 317.749ZM265.708 301.346C262.603 301.346 260.077 303.872 260.077 306.977C260.077 310.082 262.603 312.608 265.708 312.608C268.813 312.608 271.339 310.082 271.339 306.977C271.339 303.872 268.813 301.346 265.708 301.346Z" fill="#231F20"/>
<path d="M146.292 331.037C140.352 331.037 135.52 326.204 135.52 320.265C135.52 314.326 140.352 309.493 146.292 309.493C152.232 309.493 157.064 314.326 157.064 320.265C157.063 326.204 152.232 331.037 146.292 331.037ZM146.292 314.634C143.187 314.634 140.661 317.16 140.661 320.265C140.661 323.37 143.187 325.896 146.292 325.896C149.397 325.896 151.923 323.37 151.923 320.265C151.923 317.16 149.397 314.634 146.292 314.634Z" fill="#231F20"/>
<path d="M244.723 249.494C247.887 249.494 250.451 246.93 250.451 243.767C250.451 240.604 247.887 238.04 244.723 238.04C241.56 238.04 238.996 240.604 238.996 243.767C238.996 246.93 241.56 249.494 244.723 249.494Z" fill="#231F20"/>
<path d="M257.507 353.587C260.67 353.587 263.234 351.022 263.234 347.859C263.234 344.696 260.67 342.131 257.507 342.131C254.344 342.131 251.779 344.696 251.779 347.859C251.779 351.022 254.344 353.587 257.507 353.587Z" fill="#231F20"/>
<defs>
<linearGradient id="paint0_linear_121_16456" x1="105.65" y1="416.7" x2="105.65" y2="426.7" gradientUnits="userSpaceOnUse">
<stop stop-color="#4B2413"/>
<stop offset="1" stop-color="#1E100B"/>
</linearGradient>
<linearGradient id="paint1_linear_121_16456" x1="167.255" y1="100.109" x2="196.112" y2="118.736" gradientUnits="userSpaceOnUse">
<stop stop-color="#1FC3F3" stop-opacity="0"/>
<stop offset="0.13" stop-color="#20C3F3" stop-opacity="0.02"/>
<stop offset="0.26" stop-color="#23C4F3" stop-opacity="0.07"/>
<stop offset="0.39" stop-color="#28C4F3" stop-opacity="0.15"/>
<stop offset="0.51" stop-color="#30C5F3" stop-opacity="0.26"/>
<stop offset="0.64" stop-color="#39C6F3" stop-opacity="0.41"/>
<stop offset="0.77" stop-color="#44C8F4" stop-opacity="0.59"/>
<stop offset="0.9" stop-color="#52C9F4" stop-opacity="0.8"/>
<stop offset="1" stop-color="#5ECBF4"/>
</linearGradient>
<linearGradient id="paint2_linear_121_16456" x1="77" y1="198" x2="77" y2="219" gradientUnits="userSpaceOnUse">
<stop stop-color="#555555"/>
<stop offset="1" stop-color="#0F0F0F"/>
</linearGradient>
</defs>
</svg>
