<svg width="569" height="436" viewBox="0 0 569 436" fill="none" xmlns="http://www.w3.org/2000/svg">
<path d="M347.482 383.876L332.847 287.848L322.85 290.942L339.237 378.512C340.062 383.154 336.558 387.486 331.817 387.486L228.857 387.486C223.704 387.486 220.096 382.535 221.642 377.584L246.171 300.019L239.575 300.535L211.851 382.638C210.202 387.589 213.81 392.643 219.066 392.643L340.062 392.643C344.597 392.643 348.204 388.517 347.482 383.876Z" fill="#6D6D6D"/>
<path d="M411.588 383.876L396.953 287.848L386.956 290.942L403.343 378.512C404.167 383.154 400.663 387.486 395.922 387.486L292.962 387.486C287.809 387.486 284.202 382.535 285.748 377.584L310.277 300.019L303.68 300.535L275.957 382.638C274.307 387.589 277.915 392.643 283.171 392.643L404.167 392.643C408.805 392.643 412.309 388.517 411.588 383.876Z" fill="#EAEAEA"/>
<path d="M269.979 251.437C276.678 232.149 279.461 216.162 280.697 205.022C281.316 199.452 283.583 176.864 291.416 158.607C292.859 155.306 295.435 149.736 301.413 145.507C306.875 141.588 312.647 140.66 315.945 140.453L414.37 138.081C416.122 138.081 418.596 138.39 421.481 139.113C428.077 140.969 433.231 144.889 435.807 148.086C442.3 155.925 440.548 167.58 439.621 173.253C436.632 191.407 427.665 234.109 414.267 291.148C412.309 299.606 404.888 305.692 396.231 306.001C357.067 307.651 323.984 308.683 296.878 310.23C287.912 309.92 259.672 308.579 239.163 301.772C233.494 299.915 227.208 297.234 224.013 291.148C221.23 285.991 221.848 280.524 222.26 277.842C223.291 269.488 227.723 263.711 230.299 260.927C243.492 257.626 256.787 254.532 269.979 251.437Z" fill="#B37654"/>
<path d="M270.082 251.025C276.06 231.633 279.048 215.955 280.697 205.022C284.511 179.442 283.686 162.733 296.363 149.736C301.516 144.476 307.082 141.691 310.792 140.144C337.588 139.628 364.488 139.009 391.284 138.494C401.9 143.135 407.259 149.118 410.042 153.14C421.069 169.128 420.76 183.877 402.724 242.773C398.292 257.11 399.117 261.649 394.582 267.631C385.203 280.318 369.744 284.031 358.716 285.991C305.742 295.377 226.074 287.022 224.322 269.591C224.116 267.631 225.043 264.64 230.093 260.823C243.904 257.213 256.478 254.635 270.082 251.025Z" fill="#864D34"/>
<path d="M148.469 217.525L148.469 353.736L26.3153 353.736L26.3153 217.525L18.5012 217.525L18.5012 403.499L26.3153 403.499L26.3153 361.605L148.469 361.605L148.469 403.499L156.283 403.499L156.283 217.525L148.469 217.525Z" fill="#DF8D56"/>
<path d="M509.757 353.736L509.642 353.736L509.642 217.525L501.943 217.525L501.943 353.736L382.778 353.736L382.778 217.525L375.078 217.525L375.078 403.499L382.778 403.499L382.778 361.605L501.943 361.605L501.943 403.499L509.642 403.499L509.642 361.605L509.757 361.605L509.757 353.736Z" fill="#DF8D56"/>
<path d="M538.945 194.278L0 194.278L-1.15688e-09 218.687L538.945 218.687L538.945 194.278Z" fill="#BCBCBC"/>
<path d="M129.853 194.278L0 194.278L-1.15688e-09 218.687L129.853 218.687L129.853 194.278Z" fill="#F7EDED"/>
<path d="M229.417 189.356L78.4189 189.356L80.5731 194.983L229.417 194.983" fill="#F7F7FB"/>
<path d="M165.903 189.098C169.414 187.74 170.915 184.507 169.986 181.844L149.253 122.99C148.805 121.681 147.957 120.552 146.834 119.766C145.71 118.98 144.37 118.577 143.006 118.617L65.0768 119.384C63.6631 119.399 62.2762 119.775 61.0434 120.478C59.8107 121.18 58.7727 122.187 58.0239 123.404L55.7161 127.155L163.044 190.113L165.903 189.098Z" fill="#C4D1D8"/>
<path d="M166.495 182.911L146.436 126.346C146.052 125.269 145.35 124.337 144.426 123.679C143.501 123.021 142.4 122.668 141.271 122.668L61.1985 122.668C60.3134 122.672 59.4429 122.893 58.6604 123.313C57.8779 123.733 57.2071 124.339 56.7055 125.079C56.2039 125.819 55.8857 126.672 55.7794 127.564C55.6731 128.456 55.7813 129.361 56.0944 130.201L77.1132 186.766C77.5065 187.819 78.2041 188.727 79.115 189.371C80.0259 190.014 81.1075 190.364 82.2173 190.372L161.33 190.372C162.211 190.371 163.078 190.156 163.86 189.744C164.641 189.331 165.314 188.734 165.82 188.003C166.327 187.271 166.652 186.427 166.77 185.541C166.887 184.655 166.793 183.753 166.495 182.911V182.911Z" fill="#F2ECEC"/>
<path fill-rule="evenodd" clip-rule="evenodd" d="M115.364 152.331L119.064 162.693L108.558 162.693L104.864 152.331L115.364 152.331ZM117.512 149.223L123.431 165.802L106.41 165.802L100.498 149.223L117.512 149.223Z" fill="white"/>
<path d="M229.417 194.983L171.108 194.983L169.128 189.356L229.417 189.356" fill="white"/>
<path d="M540.325 204C540.725 223.8 541.225 243.6 541.625 263.4C542.725 314.5 543.625 365.6 544.425 416.7L521.025 416.7C521.025 416.7 492.126 322.1 486.226 226.4C486.226 226.4 473.425 291.5 481.025 416.7L457.625 416.7C452.125 397.9 447.225 377.1 443.625 354.4C434.325 297.1 435.925 246.3 440.825 206.3C473.925 205.6 507.125 204.8 540.325 204Z" fill="#276EA5"/>
<path d="M515.525 402.2L545.925 402.2L545.925 416.7L517.226 416.7L515.525 402.2Z" fill="#0A38BF"/>
<path d="M452.225 402.2L482.625 402.2L482.625 416.7L453.925 416.7L452.225 402.2Z" fill="#0A38BF"/>
<path d="M520.925 221.2C520.925 221.2 526.225 231.1 536.925 232" stroke="white" stroke-width="0.25" stroke-miterlimit="10"/>
<path d="M539.825 402.2L530.726 230.4" stroke="white" stroke-width="0.25" stroke-miterlimit="10"/>
<path d="M459.226 402.2C459.226 402.2 435.426 302 438.426 229.4" stroke="white" stroke-width="0.25" stroke-miterlimit="10"/>
<path d="M521.118 416.7C521.118 416.7 513.118 416.7 508.518 426.7L534.018 426.7L535.418 425.6L536.518 426.7L544.418 426.7L544.418 416.7L521.118 416.7Z" fill="#4B2413"/>
<path d="M457.925 416.7C457.925 416.7 449.925 416.7 445.325 426.7L470.825 426.7L472.225 425.6L473.325 426.7L481.225 426.7L481.225 416.7L457.925 416.7Z" fill="#4B2413"/>
<path d="M518.721 422.575C519.021 422.475 527.421 421.375 521.021 416.975C514.621 412.575 512.221 416.475 515.521 418.675C518.821 420.875 520.121 418.675 522.921 416.375C525.721 414.075 530.521 416.775 530.721 419.475C530.921 422.175 524.721 418.975 521.621 417.475C521.621 417.475 520.221 421.275 517.421 421.675" stroke="#FBF1E9" stroke-width="0.25" stroke-miterlimit="10"/>
<path d="M455.528 422.575C455.828 422.475 464.228 421.375 457.828 416.975C451.428 412.575 449.028 416.475 452.328 418.675C455.628 420.875 456.928 418.675 459.728 416.375C462.528 414.075 467.328 416.775 467.528 419.475C467.728 422.175 461.528 418.975 458.428 417.475C458.428 417.475 457.028 421.275 454.228 421.675" stroke="#FBF1E9" stroke-width="0.25" stroke-miterlimit="10"/>
<path d="M544.518 426.7L536.618 426.7L535.418 425.6L534.018 426.7L508.518 426.7L509.518 424.8L544.518 424.8L544.518 426.7Z" fill="#080808"/>
<path d="M481.325 426.7L473.425 426.7L472.225 425.6L470.825 426.7L445.325 426.7L446.325 424.8L481.325 424.8L481.325 426.7Z" fill="#080808"/>
<g clip-path="url(#clip0_122_15750)">
<path d="M471.681 108.203C457.281 107.003 443.681 111.203 429.481 110.003C430.381 120.103 433.981 125.403 431.781 136.503C431.781 136.503 430.381 142.603 426.581 147.703C420.281 156.103 406.781 160.003 392.081 157.503C391.881 156.903 390.881 153.803 387.881 152.603C387.375 152.401 386.37 152.238 385.41 152.126C384.239 151.99 383.323 152.96 383.457 154.132V154.132C383.571 155.123 384.366 155.913 385.362 155.977C386.198 156.031 386.891 156.072 386.891 156.072C384.491 155.972 382.081 155.903 377.781 156.003C370.881 156.103 369.881 156.503 369.281 157.303C363.181 166.203 384.181 173.903 389.581 175.903C410.781 183.803 439.581 186.103 455.681 167.003C466.381 154.303 470.581 137.003 471.581 120.803C471.781 116.603 471.881 112.403 471.681 108.203Z" fill="#FFC299"/>
</g>
<path fill-rule="evenodd" clip-rule="evenodd" d="M439.54 110.088C436.209 110.269 432.862 110.289 429.481 110.003C429.793 113.503 430.429 116.426 431.035 119.214C431.082 119.431 431.129 119.646 431.176 119.861L441.847 120.29L439.54 110.088Z" fill="black" fill-opacity="0.1"/>
<path d="M538.646 216.013C527.694 217.687 516.648 218.573 505.603 218.868C489.459 219.163 474.825 219.459 457.076 213.848C451.884 212.174 447.258 209.32 444.425 208.04C458.398 205.481 473.409 204.201 488.798 202.134C505.508 199.969 524.037 199.181 539.425 198C538.925 203.5 539.967 208.828 538.646 216.013Z" fill="#555555"/>
<path d="M529.425 120L565.425 112C552.744 73.9545 528.775 56.9423 485.425 56.5C476.425 56.5 463.748 59.46 450.425 68.5C436.425 78 431.425 98.5 431.425 109L437.925 111L440.425 206.5C464.825 219.7 517.259 213.167 538.925 209C542.525 187.4 533.759 140.667 529.425 120Z" fill="#F94F46"/>
<path d="M565.011 115.213C550.611 114.013 537.011 118.213 522.811 117.013C523.711 127.113 527.311 132.413 525.111 143.513C525.111 143.513 523.711 156.613 519.911 161.713C513.611 170.113 500.111 174.013 485.411 171.513C485.211 170.913 484.211 167.813 481.211 166.613C480.705 166.411 479.7 166.248 478.74 166.136C477.569 166 476.653 166.97 476.788 168.141V168.141C476.902 169.133 477.696 169.923 478.693 169.987C479.528 170.041 480.222 170.081 480.222 170.081C477.822 169.981 475.411 169.913 471.111 170.013C464.211 170.113 463.211 170.513 462.611 171.313C456.511 180.213 477.511 187.913 482.911 189.913C504.111 197.813 532.911 200.113 549.011 181.013C559.711 168.313 563.911 144.013 564.911 127.813C565.111 123.613 565.211 119.413 565.011 115.213Z" fill="#FFC299"/>
<path d="M565.011 115.213C550.611 114.013 537.011 118.213 522.811 117.013C523.711 127.113 527.311 132.413 525.111 143.513C525.111 143.513 523.711 156.613 519.911 161.713C513.611 170.113 500.111 174.013 485.411 171.513C485.211 170.913 484.211 167.813 481.211 166.613C480.705 166.411 479.7 166.248 478.74 166.136C477.569 166 476.653 166.97 476.788 168.141V168.141C476.902 169.133 477.696 169.923 478.693 169.987C479.528 170.041 480.222 170.081 480.222 170.081C477.822 169.981 475.411 169.913 471.111 170.013C464.211 170.113 463.211 170.513 462.611 171.313C456.511 180.213 477.511 187.913 482.911 189.913C504.111 197.813 532.911 200.113 549.011 181.013C559.711 168.313 563.911 144.013 564.911 127.813C565.111 123.613 565.211 119.413 565.011 115.213Z" fill="#FFC299"/>
<path fill-rule="evenodd" clip-rule="evenodd" d="M524.646 127.516C524.554 127.088 524.46 126.658 524.366 126.224C523.77 123.482 523.144 120.608 522.827 117.184L523.368 117.057C530.261 117.573 537.017 116.846 543.796 116.118C550.784 115.366 557.798 114.612 565.012 115.213C565.055 116.131 565.085 117.049 565.102 117.966L524.646 127.516Z" fill="black" fill-opacity="0.1"/>
<path d="M518.925 116.1L564.525 105.4L567.925 115.3L521.325 126.3L518.925 116.1Z" fill="#FFC160"/>
<path d="M429.326 107.243L439.442 107.654L441.847 118.29L428.917 117.771L429.326 107.243Z" fill="#FFC160"/>
<path d="M500.458 60.6174C502.805 60.8206 504.564 62.9535 504.369 65.4928C504.369 65.7975 504.271 66.2038 504.173 66.5085C502.022 73.3136 495.962 77.8843 489.119 77.9858C481.493 77.9858 474.944 72.3995 473.477 64.5786C472.989 62.2425 474.455 59.9064 476.801 59.297C477.583 59.0939 478.365 58.9923 479.147 58.9923C482.471 58.8907 494.006 60.008 500.458 60.6174Z" fill="black" fill-opacity="0.25"/>
<path d="M500.458 58.6174C502.805 58.8206 504.564 60.9535 504.369 63.4928C504.369 63.7975 504.271 64.2038 504.173 64.5085C502.022 71.3136 495.962 75.8843 489.119 75.9858C481.493 75.9858 474.944 70.3995 473.477 62.5786C472.989 60.2425 474.455 57.9064 476.801 57.297C477.583 57.0939 478.365 56.9923 479.147 56.9923C482.471 56.8907 494.006 58.008 500.458 58.6174Z" fill="#FF6951"/>
<path d="M476.336 13.7269L492.436 13.7269C497.136 13.7269 500.936 17.5269 500.936 22.3269L500.936 29.1269C501.536 28.8269 502.236 28.8269 502.836 28.9269C505.136 29.4269 506.436 32.5269 505.736 35.9269C505.136 38.9269 503.036 41.1269 500.936 41.1269L500.936 64.9269C497.636 67.9269 493.236 69.4269 488.736 69.3269C484.936 69.1269 481.336 67.5269 478.436 64.9269L478.436 49.1269L476.236 49.1269C471.536 49.1269 467.736 45.3269 467.736 40.5269L466.736 14.2269C466.736 9.52689 471.636 13.7269 476.336 13.7269Z" fill="#FFC299"/>
<path opacity="0.1" d="M491.529 48.626L478.429 49.126L478.429 54.426C483.429 54.626 488.329 52.426 491.529 48.626Z" fill="#805538"/>
<path d="M498.466 35.0001L495.366 34.9001C495.366 34.9001 496.866 20.0001 493.166 18.8001C483.716 15.7351 456.247 24.6081 462.166 3.30029C465.329 4.88179 468.945 5.90689 472.466 6.20029C491.585 8.42769 507.173 4.11159 502.666 28.9001C501.666 29.0001 500.766 29.4001 499.966 30.1001C498.666 31.3001 498.166 33.2001 498.466 35.0001Z" fill="#555555"/>
<path d="M495.366 22.1001C494.863 19.2781 493.555 15.2891 490.236 13.5381C485.208 10.9109 480.079 15.4841 473.34 13.8301C470.323 13.1491 466.3 10.9109 462.378 4.1001C462.277 7.5055 462.68 15.2891 467.809 18.5001C470.323 20.0571 473.139 19.9591 477.967 19.8621C485.811 19.6681 490.236 17.5271 493.756 20.1541C494.36 20.6411 494.963 21.3221 495.366 22.1001Z" fill="#555555"/>
<path d="M478.366 10.3002C475.266 10.5002 471.966 10.6002 468.466 9.2002C465.066 7.7002 462.266 5.3002 460.266 2.2002" stroke="white" stroke-width="0.25" stroke-miterlimit="10"/>
<path d="M507.366 29.1001C500.222 29.1001 501.522 22.8621 498.977 18.4051C496.678 14.3801 491.622 13.3451 491.163 13.2301C483.814 11.8512 477.684 17.3811 469.903 13.9201C466.111 12.1951 462.779 9.5501 460.366 6.1001" stroke="white" stroke-width="0.2" stroke-miterlimit="10"/>
<path d="M465.665 2.6001C467.465 4.8001 469.766 6.5001 472.466 7.5001C478.266 9.6001 484.866 7.80009 486.566 7.30009C488.866 6.60009 490.366 5.8001 492.866 6.1001" stroke="white" stroke-width="0.25" stroke-miterlimit="10"/>
<path d="M161.119 210.606C160.739 229.433 160.453 261.285 160.168 280.111C159.311 328.698 163.498 377.285 163.022 425.872L174.249 425.872C174.249 425.872 198.511 322.898 203.078 231.905C203.078 231.905 215.923 306.829 212.403 425.872L223.249 425.872C225.818 407.997 233.239 388.22 236.094 366.636C243.325 312.154 241.993 250.826 238.282 212.793C212.593 212.033 186.904 211.367 161.119 210.606Z" fill="#696270"/>
<path d="M176.914 412.085L162.261 412.085L162.261 425.777L176.057 425.777L176.914 412.085Z" fill="#380E63"/>
<path d="M225.819 412.085L211.642 412.085L211.642 425.777L225.058 425.777L225.819 412.085Z" fill="#380E63"/>
<path d="M176.153 226.961C176.153 226.961 172.061 236.374 163.688 237.23" stroke="white" stroke-width="0.226" stroke-miterlimit="10"/>
<path d="M165.686 412.085L168.541 235.708" stroke="white" stroke-width="0.226" stroke-miterlimit="10"/>
<path d="M224.011 412.085C224.011 412.085 242.469 303.787 240.091 234.757" stroke="white" stroke-width="0.226" stroke-miterlimit="10"/>
<path d="M174.249 425.777C174.249 425.777 178.15 425.777 180.339 435.285L168.065 435.285L163.022 435.285L163.022 425.777L174.249 425.777Z" fill="#4B2413"/>
<path d="M177.182 431.771C176.897 431.676 168.905 430.63 174.994 426.446C181.083 422.263 183.367 425.971 180.227 428.063C177.087 430.154 175.85 428.063 173.186 425.876C170.522 423.689 165.955 426.256 165.765 428.823C165.575 431.391 171.474 428.348 174.423 426.922C174.423 426.922 175.755 430.535 178.419 430.915" stroke="white" stroke-width="0.25" stroke-miterlimit="10"/>
<path d="M223.154 425.777C223.154 425.777 226.865 425.777 229.053 435.285L217.16 435.285L212.308 435.285L212.308 425.777L223.154 425.777Z" fill="#4B2413"/>
<path d="M226.658 431.771C226.373 431.676 218.381 430.63 224.47 426.446C230.559 422.263 232.843 425.971 229.703 428.063C226.563 430.154 225.326 428.063 222.662 425.876C219.998 423.689 215.431 426.256 215.241 428.823C215.05 431.391 220.949 428.348 223.899 426.922C223.899 426.922 225.231 430.535 227.895 430.915" stroke="white" stroke-width="0.25" stroke-miterlimit="10"/>
<path fill-rule="evenodd" clip-rule="evenodd" d="M301.54 136.295C303.276 134.862 304.384 134.067 305.12 134.4C307.611 135.539 303.678 150.222 297.676 161.617C297.61 161.742 297.527 161.904 297.425 162.101C294.852 167.095 280.924 194.123 257.163 190.345C241.001 187.803 227.369 172.276 225.496 152.411C226.734 151.987 227.952 151.5 229.169 151.014C230.943 150.304 232.716 149.596 234.548 149.083C236.242 148.595 237.966 148.349 239.682 148.105C241.413 147.859 243.137 147.613 244.816 147.121C246.696 146.542 248.459 145.635 250.024 144.441C251.573 149.81 252.691 153.029 254.819 156.356C257.408 160.39 260.095 164.513 264.567 165.926C273.188 168.654 284.427 158.516 289.703 150.988C290.688 149.577 291.683 147.934 292.6 146.419C292.728 146.208 292.854 146 292.978 145.795C292.741 144.951 292.647 143.848 292.571 142.954C292.436 141.358 292.183 138.353 293.377 137.834C294.501 137.345 296.902 139.037 297.491 141.255C298.512 139.367 299.884 137.683 301.54 136.295Z" fill="#F9B98E"/>
<path d="M162.547 219.382C173.923 221.345 183.436 222.032 190.497 222.228C204.129 222.522 216.584 222.817 231.589 217.222C236.002 215.554 239.925 212.708 242.278 211.432C230.314 209.272 217.761 207.309 204.717 205.543C190.693 203.678 163.135 207.015 162.841 210.352C162.547 213.689 162.449 216.732 162.547 219.382Z" fill="#5E1219"/>
<path d="M232.477 115.448L181.088 115.448L182.559 70.7462C203.252 56.3183 222.572 45.6639 229.535 51.8473C231.006 53.1232 233.556 56.264 232.575 64.2141L232.575 115.448L232.477 115.448Z" fill="#555555"/>
<path d="M191.664 73.4116C191.664 73.4116 191.742 87.6659 189.145 96.6818C186.547 105.698 183.532 106.197 183.532 106.197" stroke="white" stroke-width="0.2" stroke-miterlimit="10"/>
<path d="M242.676 110.735C235.125 100.135 224.141 97.1906 219.826 95.8166C199.623 89.535 182.362 98.4666 178.145 100.724C174.321 102.785 163.141 108.87 155.687 122.219C151.568 129.678 150.097 136.647 149.509 141.161C151.274 141.161 164.219 141.652 169.809 150.878C171.477 153.626 171.771 155.982 170.594 170.312C169.025 189.843 167.75 194.849 166.965 197.793C165.494 203.094 163.925 207.314 162.748 210.258C174.223 213.596 184.128 215.264 191.679 216.147C197.465 216.834 205.017 217.816 214.824 217.129C225.318 216.442 234.732 214.871 242.578 213.007C241.499 209.473 240.224 204.762 239.342 198.971C238.459 193.475 238.263 188.371 237.969 178.262C237.772 170.704 237.773 169.036 237.576 162.754C237.282 154.412 236.89 147.541 236.498 142.634C241.793 141.652 247.089 140.573 252.483 139.591C251.699 135.665 251.012 122.415 242.676 110.735Z" fill="#115FA7"/>
<path d="M188.551 98.2736C188.551 99.4514 188.627 100.482 189.215 102.15C191.275 107.941 197.845 112.063 204.318 112.063C211.968 112.063 219.617 106.273 220.009 100.482C220.107 99.4022 219.911 98.4206 219.715 97.7336C216.283 96.654 211.869 95.6725 206.574 95.4762C198.826 95.1817 192.67 97.0958 188.551 98.2736Z" fill="black" fill-opacity="0.1"/>
<path d="M188.551 96.3102C188.551 97.488 188.627 98.5184 189.215 100.187C191.275 105.978 197.845 110.1 204.318 110.1C211.968 110.1 219.617 104.309 220.009 98.5184C220.107 97.4388 219.911 96.4573 219.715 95.7702C216.283 94.6906 211.869 93.7091 206.574 93.5128C198.826 93.2184 192.67 95.1324 188.551 96.3102Z" fill="#FF6951"/>
<path fill-rule="evenodd" clip-rule="evenodd" d="M236.793 148.56C237.754 148.379 238.719 148.242 239.682 148.105C241.413 147.859 243.136 147.613 244.815 147.12C246.696 146.542 248.459 145.635 250.023 144.441C250.682 146.725 251.263 148.62 251.877 150.299L237.184 154.215L236.793 148.56Z" fill="black" fill-opacity="0.1"/>
<path d="M253.072 138.413L236.498 142.339L237.185 152.252L255.23 147.443L253.072 138.413Z" fill="#FF6951"/>
<path d="M181.578 146.265L147.744 139.395L144.802 148.228L179.323 155.197L181.578 146.265Z" fill="#E93948"/>
<path d="M215.788 181.98L187.844 158.614C185.745 156.858 182.622 157.138 180.868 159.239L146.925 199.896C145.171 201.997 145.451 205.123 147.55 206.878L175.493 230.244C177.592 231.999 180.716 231.719 182.469 229.619L216.413 188.962C218.166 186.861 217.887 183.735 215.788 181.98Z" fill="#29BADB" stroke="#167A89" stroke-miterlimit="10"/>
<path d="M209.718 185.634L183.581 163.778L151.87 201.761L178.007 223.618L209.718 185.634Z" fill="#D0D0D0"/>
<path d="M213.047 184.094L186.91 162.238L155.199 200.221L181.336 222.078L213.047 184.094Z" fill="white"/>
<path d="M202.807 178.065L194.608 171.215L198.482 163.098L210.162 172.864L202.807 178.065Z" fill="#068FA5"/>
<path d="M148.967 144.351C155.675 145.558 171.582 152.095 176.927 150.515C177.496 150.348 177.241 148.827 177.398 149.779C177.966 153.332 176.113 159.152 175.309 163.421C174.161 169.536 178.084 178.988 181.095 182.718C186.695 189.647 189.725 191.698 196.904 194.653C197.287 194.014 197.81 193.471 198.433 193.064C199.057 192.658 199.765 192.399 200.503 192.307C201.07 192.272 201.637 192.356 202.17 192.552C201.768 193.386 201.366 194.23 200.954 195.055C200.611 194.957 199.885 194.721 199.65 194.623C199.414 194.525 199.65 194.623 199.65 194.623C201.258 194.829 204.818 196.478 205.956 196.743C207.8 197.185 211.379 198.421 211.654 199.57C212.448 202.868 206.897 204.644 205.505 205.626C203.543 206.99 198.355 207.304 197.522 207.255C192.52 206.97 184.939 207.117 181.673 206.057C170.258 202.347 160.314 200.169 153.596 190.197C145.358 177.948 148.977 158.475 148.967 144.351Z" fill="#FFC299"/>
<path fill-rule="evenodd" clip-rule="evenodd" d="M176.794 156.69C177.327 154.13 177.696 151.642 177.397 149.779C177.36 149.554 177.346 149.467 177.339 149.468C177.315 149.469 177.361 150.387 176.926 150.515C173.396 151.559 165.259 149.062 158.208 146.898C154.582 145.785 151.244 144.761 148.966 144.351C148.968 146.473 148.888 148.715 148.778 151.035L176.794 156.69Z" fill="black" fill-opacity="0.1"/>
<path d="M181.578 146.265L147.744 139.395L144.802 148.228L179.323 155.197L181.578 146.265Z" fill="#FF6951"/>
<path d="M217.036 47.6125C217.036 47.6125 211.378 46.6618 201.388 47.6127C192.474 48.4611 192.678 69.7666 192.678 69.7666C192.393 69.6716 192.107 69.5765 191.822 69.5765C191.822 69.5765 191.346 69.4814 190.871 69.5765C188.777 70.0519 188.016 76.4224 190.966 79.5601C192.583 81.2716 194.867 81.5568 195.818 81.5568C196.008 88.1174 196.104 90.7797 196.294 97.3404C196.294 98.006 196.389 100.763 198.577 102.665C200.766 104.662 203.62 104.376 204.952 104.281C206.284 104.186 208.282 103.996 209.9 102.38C211.898 100.383 211.803 97.7207 211.803 97.1503L211.803 88.9732L214.181 88.9732C218.653 88.9732 222.364 85.3601 222.364 80.7961L224.267 55.7896C224.267 51.2257 221.507 47.6125 217.036 47.6125Z" fill="#FFC299"/>
<path d="M201.527 88.4946L211.803 88.97L211.803 94.0094C211.708 93.9143 205.714 94.5799 201.527 88.4946Z" fill="black" fill-opacity="0.1"/>
<path d="M226.592 45.9582C221.395 40.0692 209.822 38.7933 195.994 42.1304C188.443 43.897 183.049 50.1786 182.853 57.3435C182.755 61.7602 182.657 66.2312 182.559 70.7461C187.757 71.0405 198.642 70.7899 210.411 65.588C220.022 61.2694 226.2 55.4786 229.338 51.8471C228.848 49.1971 227.769 47.3323 226.592 45.9582Z" fill="#555555"/>
<path d="M221.258 41.1001C217.859 48.5978 210.618 53.8336 198.422 53.1883" stroke="white" stroke-width="0.25" stroke-miterlimit="10"/>
<path d="M217.997 39.7633C215.895 44.2361 212.744 47.7648 204.666 47.1368" stroke="white" stroke-width="0.25" stroke-miterlimit="10"/>
<path d="M224.996 42.4992C220.186 54.8332 206.624 62.9804 179.554 59.8286" stroke="white" stroke-width="0.25" stroke-miterlimit="10"/>
<defs>
<clipPath id="clip0_122_15750">
<rect width="103.6" height="73.8" fill="white" transform="matrix(-1 0 0 1 471.781 108.003)"/>
</clipPath>
</defs>
</svg>
