<svg width="290" height="433" viewBox="0 0 290 433" fill="none" xmlns="http://www.w3.org/2000/svg">
<path d="M237 106C266.271 106 290 82.2711 290 53C290 23.7289 266.271 0 237 0C207.729 0 184 23.7289 184 53C184 82.2711 207.729 106 237 106Z" fill="#F2F2F2"/>
<path d="M237 14C238.657 14 240 12.6569 240 11C240 9.34315 238.657 8 237 8C235.343 8 234 9.34315 234 11C234 12.6569 235.343 14 237 14Z" fill="black" fill-opacity="0.1"/>
<path d="M195 56C196.657 56 198 54.6569 198 53C198 51.3431 196.657 50 195 50C193.343 50 192 51.3431 192 53C192 54.6569 193.343 56 195 56Z" fill="black" fill-opacity="0.1"/>
<path d="M279 56C280.657 56 282 54.6569 282 53C282 51.3431 280.657 50 279 50C277.343 50 276 51.3431 276 53C276 54.6569 277.343 56 279 56Z" fill="black" fill-opacity="0.1"/>
<path d="M237 98C238.657 98 240 96.6569 240 95C240 93.3431 238.657 92 237 92C235.343 92 234 93.3431 234 95C234 96.6569 235.343 98 237 98Z" fill="black" fill-opacity="0.1"/>
<path fill-rule="evenodd" clip-rule="evenodd" d="M237 17L239 52H235L237 17Z" fill="#AFB9C5"/>
<path fill-rule="evenodd" clip-rule="evenodd" d="M254.698 70.6984L236.314 55.142L239.142 52.3136L254.698 70.6984Z" fill="#AFB9C5"/>
<path d="M237 57C239.209 57 241 55.2091 241 53C241 50.7909 239.209 49 237 49C234.791 49 233 50.7909 233 53C233 55.2091 234.791 57 237 57Z" fill="#C5CFD6"/>
<path fill-rule="evenodd" clip-rule="evenodd" d="M131.262 72.4901C126.654 67.0814 123.536 60.4529 124.057 53.0255C125.558 31.625 155.349 36.3328 161.143 47.1339C166.938 57.9351 166.25 85.333 158.76 87.2635C155.774 88.0333 149.411 86.1475 142.935 82.2443L147 111H123L131.262 72.4901Z" fill="#B28B67"/>
<path fill-rule="evenodd" clip-rule="evenodd" d="M147.464 34.6853C144.301 34.1665 135.784 33.8099 134.213 33.8101C133.21 33.8101 132.122 34.0395 131.527 33.1178C131.041 32.3631 131.219 31.0867 131.074 30.2109C130.905 29.1935 130.665 28.1892 130.423 27.1874C129.733 24.3369 128.69 21.625 127.231 19.0788C124.493 14.3019 120.481 10.5601 115.417 8.38278C109.824 5.97866 103.496 5.42817 97.4805 5.91581C91.0431 6.43752 85.2159 8.56259 79.138 10.5624C73.346 12.4681 67.2796 13.2182 61.2219 12.2876C55.1185 11.35 50.5068 8.04203 45.3587 4.90232C40.0885 1.68801 34.0657 -0.414264 27.8354 0.0689985C22.0196 0.520259 16.6594 2.92161 11.8503 6.12947C7.35089 9.13081 3.63827 12.7418 1.54221 17.824C-0.712674 23.2909 -0.710602 29.2918 2.99743 34.1233C8.37207 41.1265 18.3499 42.9376 26.651 42.7575C31.4525 42.6537 36.1682 41.7772 40.7014 40.1828C46.7469 38.0564 51.9712 34.4523 57.627 31.528C60.2813 30.1558 63.0248 29.0288 65.9006 28.217C68.6912 27.4289 71.4398 27.0675 73.9665 28.7533C76.6393 30.5367 79.0344 32.2885 82.0922 33.4049C85.0256 34.476 88.1327 35.075 91.258 35.0509C97.3386 35.0039 103.333 33.1093 109.239 31.8402C114.054 30.8056 119.207 29.7743 124.117 30.769C126.166 31.1841 129.159 32.041 129.899 34.1702C117.444 36.4274 112.553 51.8302 116.064 63.1372C117.959 69.24 129.35 76.3742 133.779 73.1658C136.585 71.1333 134.881 68.4648 133.779 66.7033C131.668 63.3299 130.945 58.9967 134.852 56.648C138.222 54.6224 141.765 59.4327 141.832 59.4274C142.758 59.3544 150.76 54.8285 156.274 48.2241C161.713 48.5466 162.539 44.96 161.24 42.0269C159.941 39.0938 151.834 35.4024 147.464 34.6853Z" fill="#191847"/>
<path fill-rule="evenodd" clip-rule="evenodd" d="M103.644 194C105.447 218.609 221.607 291.063 222.284 293.096C222.586 294 210.534 322.56 186.128 378.778L196.282 382.724C233.716 323.185 251.471 290.244 249.549 283.9C246.796 274.817 216.754 244.938 159.422 194.262L103.644 194Z" fill="#B28B67"/>
<path fill-rule="evenodd" clip-rule="evenodd" d="M188.8 366.082L205.379 372.117C240.336 332.674 254.038 300.13 251.54 283.549C249.874 272.495 219.936 242.665 161.724 194.06L102.455 194.06C104.477 251.052 212.143 293.313 213.583 295.742C215.023 298.17 200.851 321.957 188.8 366.082Z" fill="#2F3676"/>
<path fill-rule="evenodd" clip-rule="evenodd" d="M182.392 376.839C180.32 379.263 179.03 381.172 178.523 382.565C177.906 384.259 177.288 386.835 176.669 390.291C178.635 391.007 196.302 397.437 229.67 409.582C232.704 405.53 232.804 402.782 229.969 401.339C227.134 399.896 224.788 398.671 222.932 397.664L202.295 377.716C201.897 377.332 201.264 377.343 200.881 377.74C200.874 377.747 200.868 377.754 200.861 377.761L197.88 381.026C194.666 381.307 192.201 381.136 190.483 380.511C189.088 380.003 187.366 378.738 185.317 376.716L185.317 376.716C184.531 375.94 183.265 375.948 182.489 376.734C182.456 376.768 182.423 376.803 182.392 376.839Z" fill="#E4E4E4"/>
<path fill-rule="evenodd" clip-rule="evenodd" d="M117 194L65.254 318.227L14.3958 423.25H26.3949L157.674 194H117Z" fill="#997659"/>
<path fill-rule="evenodd" clip-rule="evenodd" d="M13.6781 418.402C12.5594 421.388 12 423.623 12 425.106C12 426.909 12.3004 429.54 12.9012 433C14.9932 433 33.7938 433 69.3031 433C70.7687 428.155 69.9227 425.539 66.7648 425.152C63.607 424.766 60.9837 424.417 58.895 424.106L32.68 412.419C32.1756 412.194 31.5843 412.421 31.3595 412.925C31.3556 412.934 31.3519 412.942 31.3483 412.951L29.6632 417.039C26.7399 418.403 24.3644 419.085 22.5367 419.085C21.0517 419.085 19.001 418.485 16.3845 417.286L16.3845 417.285C15.3804 416.825 14.1933 417.266 13.733 418.27C13.7131 418.313 13.6948 418.357 13.6781 418.402Z" fill="#E4E4E4"/>
<path fill-rule="evenodd" clip-rule="evenodd" d="M18.9886 401.433L45.6507 406.433C66.2658 376.125 152.541 251.852 162 194H102.644C71.0549 235.821 38.639 370.624 18.9886 401.433Z" fill="#5C63AB"/>
<path fill-rule="evenodd" clip-rule="evenodd" d="M207 166.617L243.235 150.704C249.582 144.379 255.711 139.572 261.623 136.282C263.39 135.719 266.41 135.549 263.188 140.255C259.966 144.961 256.789 150.056 258.076 151.705C259.364 153.355 263.093 151.534 264.566 154.216C265.549 156.004 259.262 158.143 245.707 160.633L218.57 181.439L207 166.617ZM60.5083 171L81 175.066C60.3921 213.471 49.3404 233.826 47.845 236.13C44.4804 241.315 47.6197 250.817 48.7793 255.821C41.5044 257.515 44.3734 246.565 35.1672 248.851C26.7641 250.938 19.6394 256.293 11.8039 249.071C10.8406 248.183 10.1354 245.407 13.4198 243.984C21.6026 240.437 33.692 233.796 35.6523 231.218C38.3256 227.702 46.6109 207.629 60.5083 171Z" fill="#B28B67"/>
<path fill-rule="evenodd" clip-rule="evenodd" d="M136.695 94.3321L145.342 92.8489C164.176 111.119 171.862 155.012 184.414 160.823C196.281 166.316 213.104 161 233.1 153.823L239.224 167.505C221.055 187.161 182.349 203.767 166.66 194.287C141.576 179.13 135.786 124.994 136.695 94.3321Z" fill="#F94F46"/>
<path fill-rule="evenodd" clip-rule="evenodd" d="M99 203C133.672 203 159.176 203 175.511 203C179.008 203 178.349 197.952 177.843 195.404C172.011 166.004 149.241 134.312 149.241 92.4607L127.172 89C108.917 118.358 102.605 154.505 99 203Z" fill="#DDE3E9"/>
<path fill-rule="evenodd" clip-rule="evenodd" d="M91.3688 173.233C75.7714 201.368 62.6609 221.623 52.0374 234L36 230.859C46.3306 166.791 76.2466 119.504 125.748 89H129.731L134.486 89C154.299 156.537 159.761 201.537 150.872 224H82C83.0896 207.563 86.5834 190.181 91.3688 173.233H91.3688Z" fill="#F94F46"/>
</svg>
