<svg width="559" height="559" viewBox="0 0 559 559" fill="none" xmlns="http://www.w3.org/2000/svg">
<mask id="mask0_122_20154" style="mask-type:alpha" maskUnits="userSpaceOnUse" x="28" y="61" width="509" height="421">
<path fill-rule="evenodd" clip-rule="evenodd" d="M99.862 137.703C99.862 137.703 188.934 42.4427 330.792 64.7137C472.651 86.9848 330.793 196.265 465.635 229.251C600.478 262.238 515.946 439.973 435.947 465.95C355.948 491.927 308.521 487.394 271.823 429.666C235.125 371.938 139.037 416.881 77.591 378.528C16.145 340.174 -0.34521 245.334 99.862 137.703Z" fill="white"/>
</mask>
<g mask="url(#mask0_122_20154)">
<path d="M99.862 137.703C99.862 137.703 188.934 42.4427 330.792 64.7137C472.651 86.9848 330.793 196.265 465.635 229.251C600.478 262.238 515.946 439.973 435.947 465.95C355.948 491.927 308.521 487.394 271.823 429.666C235.125 371.938 139.037 416.881 77.591 378.528C16.145 340.174 -0.34521 245.334 99.862 137.703Z" fill="#866EF9"/>
<g opacity="0.59">
<path d="M460.2 219.635C460.2 219.635 495.108 301.413 438.535 354.231C381.962 407.049 456.995 434.23 487.097 402.478C517.2 370.727 536.975 273.225 497.825 228.559C458.675 183.894 460.2 219.635 460.2 219.635Z" fill="#A997FF"/>
<path d="M132.441 291.549C132.441 291.549 124.19 345.541 186.871 350.902C249.552 356.262 304.001 376.057 308.941 405.745C313.882 435.434 413.262 394.437 364.193 342.978C315.124 291.518 274.942 292.334 229.467 293.995C183.993 295.656 132.441 291.549 132.441 291.549Z" fill="#A997FF"/>
<path d="M328.39 492.34C328.39 492.34 331.138 446.569 377.799 452.758C424.459 458.946 409.581 417.288 479.704 443.685C549.828 470.082 374.241 510.072 328.39 492.34V492.34Z" fill="#A997FF"/>
<path d="M374.501 240.849C374.501 240.849 434.65 243.888 441.073 281.519C447.496 319.15 420.272 364.73 397.155 342.977C374.038 321.225 404.918 264.3 337.944 257.704C270.971 251.108 334.091 226.879 374.501 240.849V240.849Z" fill="#A997FF"/>
<path d="M9.96268 270.279C10.7347 271.569 37.5945 318.323 66.4616 300.591C95.3287 282.859 38.8298 269.661 54.9123 249.453C70.9949 229.245 63.6824 194.195 42.3872 194.195C21.092 194.195 -4.87849 245.333 9.96268 270.279V270.279Z" fill="#A997FF"/>
<path d="M110.324 399.971C110.324 399.971 156.379 357.912 175.13 385.148C193.881 412.385 210.334 371.561 224.792 392.56C239.25 413.558 166.971 432.964 110.324 399.971H110.324Z" fill="#A997FF"/>
<path d="M286.467 53.9919C286.467 53.9919 367.899 60.73 375.322 112.825C382.746 164.921 313.895 139.154 308.942 114.925C303.988 90.6964 283.836 80.3391 261.54 86.5461C239.244 92.7531 198.118 70.4882 233.525 53.9919C268.933 37.4955 286.467 53.9919 286.467 53.9919Z" fill="#A997FF"/>
<path d="M403.664 138.685C403.664 138.685 376.866 149.085 384.963 175.568C393.06 202.051 367.225 204.114 383.438 214.836C399.65 225.558 419.877 210.025 413.701 187.043C407.524 164.062 403.664 138.685 403.664 138.685Z" fill="#A997FF"/>
<path d="M255.722 145.182C255.722 145.182 273.929 128.099 282.372 142.18C290.815 156.262 323.177 167.255 308.639 188.977C294.1 210.698 226.694 218.776 255.722 145.182V145.182Z" fill="#A997FF"/>
</g>
</g>
<path d="M91.9937 82.5811H241.227V327.803H91.9937L91.9937 82.5811Z" fill="white" stroke="#111111" stroke-width="1.34"/>
<path d="M128.661 187.05H160.252V218.628H128.661C119.939 218.628 112.869 211.558 112.869 202.836C112.872 194.116 119.942 187.05 128.661 187.05V187.05Z" fill="#111111" stroke="#111111" stroke-width="1.34"/>
<path d="M109.521 111.609H168.67V164.161H109.521L109.521 111.609Z" fill="#111111" stroke="#111111" stroke-width="1.34"/>
<path d="M114.802 104.302H189.798V156.855H114.802L114.802 104.302Z" fill="white" stroke="#111111" stroke-width="1.34"/>
<rect x="103.395" y="307.737" width="143.471" height="11.8643" rx="5.93214" fill="#111111" stroke="#111111" stroke-width="1.34"/>
<rect x="106.464" y="304.439" width="143.471" height="11.8643" rx="5.93214" fill="white" stroke="#111111" stroke-width="1.34"/>
<path d="M472.781 307.471C470.96 307.471 469.483 305.995 469.483 304.173V274.485C469.48 271.451 467.021 268.992 463.986 268.988H259.428C258.214 269.041 257.07 268.423 256.447 267.38C255.825 266.337 255.825 265.037 256.447 263.994C257.07 262.951 258.214 262.333 259.428 262.386H463.986C470.666 262.393 476.078 267.806 476.085 274.485V304.204C476.065 306.015 474.592 307.472 472.781 307.471V307.471Z" fill="white" stroke="#111111" stroke-width="1.34"/>
<path fill-rule="evenodd" clip-rule="evenodd" d="M127.593 192.244H159.183V223.822H127.593C118.878 223.812 111.819 216.744 111.819 208.03C111.822 199.318 118.88 192.254 127.593 192.244V192.244Z" stroke="#111111" stroke-width="1.34"/>
<path d="M140.896 197.5C133.145 201.459 139.778 213.558 147.906 203.479C177.786 225.039 202.608 236.156 222.451 241.4C221.609 236.174 221.196 230.888 221.216 225.595C221.183 219.944 221.652 214.302 222.618 208.734L222.501 208.629C187.513 208.253 154.582 190.496 140.896 197.5V197.5Z" fill="white"/>
<path d="M154.255 112.826H268.185V293.995H154.255V112.826Z" fill="white" stroke="#111111" stroke-width="1.34"/>
<path d="M163.587 137.055H216.016V187.05H163.587V137.055Z" fill="#111111" stroke="#111111" stroke-width="1.34"/>
<path d="M167.157 133.441H219.586V183.437H167.157V133.441Z" fill="white" stroke="#111111" stroke-width="1.34"/>
<path d="M162.803 237.805H196.265V285.435H162.803V237.805Z" fill="#111111" stroke="#111111" stroke-width="1.34"/>
<path d="M167.157 233.89H200.619V281.52H167.157V233.89Z" fill="white" stroke="#111111" stroke-width="1.34"/>
<path d="M167.157 162.265L186.321 142.792L198.42 160.931L211.223 149.938L219.586 158.442L218.486 178.527" fill="white"/>
<path d="M167.157 162.265L186.321 142.792L198.42 160.931L211.223 149.938L219.586 158.442L218.486 178.527" stroke="#111111" stroke-width="1.34"/>
<path d="M191.287 149.938H286.467V262.102H191.287V149.938Z" fill="white" stroke="#111111" stroke-width="1.34"/>
<path d="M191.287 149.938H286.467V162.265H191.287V149.938Z" fill="#111111" stroke="#111111" stroke-width="1.34"/>
<path d="M298.214 336.468C305.143 332.028 311.128 330.718 316.297 331.669C321.856 298.862 325.043 267.957 317.563 267.191C301.505 265.536 278.135 250.577 255.531 277.499C255.531 277.499 215.54 310.232 221.926 345.541C222.527 348.836 223.488 352.054 224.792 355.139C236.86 356.967 264.838 357.844 298.214 336.468V336.468Z" fill="#F9B132" stroke="#111111" stroke-width="1.34"/>
<path d="M281.31 269.279L276.764 264.499C274.911 266.265 232.531 307.058 236.879 348.178C238.966 348.104 241.202 347.975 243.475 347.752C239.281 309.763 280.877 269.693 281.31 269.279Z" fill="white" stroke="#111111" stroke-width="1.34"/>
<path d="M299.48 263.17C302.858 266.814 287.906 321.003 276.153 333.17C264.399 345.337 255.327 345.745 247.335 347.295C254.814 344.516 261.509 337.086 258.94 316.303C256.37 295.521 289.474 278.629 283.644 265.814C285.157 265.536 295.249 258.606 299.48 263.17V263.17Z" fill="#111111" stroke="#111111" stroke-width="1.34"/>
<path d="M222.371 347.795C222.371 347.795 256.704 351.501 271.57 337.704" stroke="#111111" stroke-width="1.34"/>
<path d="M300.468 409.457C300.468 409.457 309.93 369.313 316.297 331.669C311.128 330.718 305.143 332.028 298.214 336.468C264.863 357.844 236.86 356.967 224.792 355.139C240.232 391.905 300.468 409.457 300.468 409.457V409.457Z" fill="#FC9E7A"/>
<path d="M286.306 404.374C311.628 414.682 290.981 364.989 282.038 345.38C255.963 357.516 234.847 356.664 224.792 355.139C224.792 355.139 244.315 362.173 255.456 363.958C266.598 365.743 254.882 391.59 286.306 404.374V404.374Z" fill="#F97A53"/>
<path fill-rule="evenodd" clip-rule="evenodd" d="M300.468 409.457C300.468 409.457 309.93 369.313 316.297 331.669C311.128 330.718 305.143 332.028 298.214 336.468C264.863 357.844 236.86 356.967 224.792 355.139C240.232 391.905 300.468 409.457 300.468 409.457V409.457Z" stroke="#111111" stroke-width="1.34"/>
<path d="M333.905 366.015C335.875 345.43 342.749 323.227 357.597 300.591C361.994 268.148 317.594 257.877 317.594 257.877C317.594 257.877 266.203 263.436 268.247 348.975C268.472 359.74 269.922 370.444 272.57 380.881C280.031 383.308 304.001 388.323 333.905 366.015V366.015Z" fill="#F9B132"/>
<path fill-rule="evenodd" clip-rule="evenodd" d="M333.905 366.015C335.875 345.43 342.749 323.227 357.597 300.591C361.994 268.148 317.594 257.877 317.594 257.877C317.594 257.877 298.739 259.922 284.324 280.544C281.478 284.651 279.055 289.036 277.091 293.631C271.422 306.737 267.667 324.61 268.247 348.975C268.472 359.74 269.922 370.444 272.57 380.881C280.031 383.308 304.001 388.323 333.905 366.015V366.015Z" stroke="#111111" stroke-width="1.34"/>
<path d="M340.755 270.279L342.255 273.676L339.248 266.882C338.704 267.123 325.808 272.978 314.796 289.462C305.532 303.303 296.052 327.482 300.703 365.718C300.987 368.045 301.322 370.427 301.709 372.864C304.075 372.401 306.496 371.827 308.941 371.116C308.554 368.646 308.225 366.221 307.953 363.841C304.705 335.69 309.053 311.69 320.707 293.983C330.502 279.092 342.157 273.713 342.268 273.664L340.755 270.279Z" fill="white" stroke="#111111" stroke-width="1.34"/>
<path d="M293.446 270.156C293.106 270.464 292.772 270.773 292.433 271.101C302.821 273.534 331.651 281.279 333.677 292.754C336.147 306.774 318.236 301.085 322.751 316.303C327.266 331.521 312.116 338.537 316.297 360.592C318.014 369.628 326.179 364.854 335.245 356.071C338.278 338.352 345.127 319.632 357.597 300.591C358.267 296.017 357.869 291.35 356.436 286.955C347.128 277.277 328.723 269.563 293.446 270.156V270.156Z" fill="#111111" stroke="#111111" stroke-width="1.34"/>
<path d="M349.599 473.788C357.01 479.013 356.473 508.991 356.473 508.991C356.473 508.991 361.142 493.323 366.917 475.177C364.255 472.312 328.143 426.071 333.881 366.033C303.976 388.341 280.006 383.326 272.558 380.899C288.56 443.166 343.2 469.267 349.599 473.788V473.788Z" fill="#FC9E7A"/>
<path d="M316.297 383.129C332.028 376.465 310.584 405.881 327.352 428.424C344.12 450.967 363.47 472.892 359.795 484.781C357.868 490.994 356.942 499.665 356.497 506.521V508.991C356.497 508.991 361.167 493.323 366.941 475.177C364.279 472.312 328.168 426.071 333.905 366.033C306.23 386.68 283.644 383.944 274.528 381.473C274.26 381.439 273.998 381.366 273.75 381.257C273.75 381.257 299.233 391.726 316.297 383.129V383.129Z" fill="#F97A53"/>
<path fill-rule="evenodd" clip-rule="evenodd" d="M349.599 473.788C357.01 479.013 356.473 508.991 356.473 508.991C356.473 508.991 361.142 493.323 366.917 475.177C364.255 472.312 328.143 426.071 333.881 366.033C303.976 388.341 280.006 383.326 272.558 380.899C288.56 443.166 343.2 469.267 349.599 473.788V473.788Z" stroke="#111111" stroke-width="1.34"/>
<path d="M384.277 223.822C378.503 197.432 333.263 175.229 333.263 175.229C315.97 172.141 302.543 181.621 256.772 202.033C253.014 203.703 249.121 205.052 245.136 206.066C241.906 213.619 237.305 229.665 247.335 245.371C250.733 245.531 254.137 245.496 257.532 245.266C282.965 232.142 289.277 202.719 291.617 198.426C291.364 219.925 282.94 237.626 281.526 240.424L281.489 240.504L281.322 240.831C279.265 244.803 273.206 254.777 255.537 277.474C329.143 255.024 357.628 300.591 357.628 300.591C357.628 300.591 390.046 250.213 384.277 223.822V223.822Z" fill="#FC3F3F"/>
<path fill-rule="evenodd" clip-rule="evenodd" d="M384.278 223.822C378.503 197.432 333.263 175.229 333.263 175.229C315.97 172.141 302.543 181.621 256.772 202.033C253.014 203.703 249.121 205.052 245.136 206.066C241.906 213.619 237.305 229.665 247.335 245.371C270.767 246.421 282.353 238.528 282.353 238.528C282.353 238.528 280.896 244.92 255.531 277.499C329.143 255.024 357.628 300.591 357.628 300.591C357.628 300.591 390.046 250.213 384.278 223.822V223.822Z" stroke="#111111" stroke-width="1.34"/>
<path d="M281.526 240.442C282.94 237.626 291.364 219.925 291.618 198.445C289.277 202.768 282.971 232.16 257.532 245.284C274.127 244.148 282.353 238.546 282.353 238.546C282.139 239.203 281.861 239.838 281.526 240.442V240.442Z" fill="#111111" stroke="#111111" stroke-width="1.34"/>
<path d="M354.089 224.304C354.231 220.599 347.295 212.533 338.414 206.98C339.241 209.562 344.707 222.242 339.865 228.325C335.023 234.409 351.927 237.083 354.089 224.304Z" fill="#111111" stroke="#111111" stroke-width="1.34"/>
<path d="M229.467 255.747C234.014 255.747 237.7 242.247 237.7 225.595C237.7 208.943 234.014 195.443 229.467 195.443C224.921 195.443 221.235 208.943 221.235 225.595C221.235 242.247 224.921 255.747 229.467 255.747Z" fill="#111111" stroke="#111111" stroke-width="1.34"/>
<path d="M221.235 225.595C221.215 230.888 221.628 236.174 222.47 241.399C230.6 243.604 238.941 244.936 247.353 245.371C237.323 229.665 241.925 213.619 245.155 206.066C237.761 207.91 230.157 208.771 222.538 208.629L222.655 208.734C221.683 214.301 221.208 219.944 221.235 225.595V225.595Z" fill="#FC9E7A"/>
<path d="M222.451 241.399C230.581 243.604 238.923 244.936 247.335 245.371C237.305 229.665 241.906 213.619 245.136 206.066L244.79 206.152C242.091 209.728 238.132 217.14 237.595 230.282C237.595 236.749 229.412 228.164 221.241 226.626C221.264 231.574 221.669 236.513 222.451 241.399V241.399Z" fill="#F97A53"/>
<path fill-rule="evenodd" clip-rule="evenodd" d="M221.235 225.595C221.215 230.888 221.628 236.174 222.47 241.4C230.6 243.605 238.941 244.936 247.353 245.371C237.323 229.665 241.925 213.62 245.155 206.066C237.761 207.91 230.157 208.772 222.538 208.629L222.655 208.734C221.683 214.302 221.208 219.944 221.235 225.595V225.595Z" stroke="#111111" stroke-width="1.34"/>
<path fill-rule="evenodd" clip-rule="evenodd" d="M140.896 197.5C133.145 201.459 139.778 213.558 147.906 203.479C177.786 225.039 202.608 236.156 222.451 241.4C221.609 236.174 221.196 230.888 221.216 225.595C221.183 219.944 221.652 214.302 222.618 208.734L222.501 208.629C187.513 208.253 154.582 190.496 140.896 197.5V197.5Z" stroke="#111111" stroke-width="1.34"/>
<path d="M395.92 208.222C371.592 175.433 333.238 175.229 333.238 175.229C324.592 185.537 311.795 198.939 325.642 201.619C339.489 204.3 354.268 218.913 354.052 224.304C381.227 220.543 391.812 239.899 394.653 246.649C406.03 237.249 406.827 222.884 395.92 208.222V208.222Z" fill="#FC3F3F"/>
<path d="M354.089 224.304C292.643 234.803 295.737 253.993 300.468 256.877C305.199 259.761 308.108 256.055 306.459 249.867C350.568 262.293 380.677 258.266 394.691 246.649C391.849 239.899 381.251 220.543 354.089 224.304Z" fill="#FC9E7A"/>
<path fill-rule="evenodd" clip-rule="evenodd" d="M354.089 224.304C292.643 234.803 295.737 253.993 300.468 256.877C305.199 259.761 308.108 256.055 306.459 249.867C350.568 262.293 380.677 258.266 394.691 246.649C391.849 239.899 381.251 220.543 354.089 224.304Z" stroke="#111111" stroke-width="1.34"/>
<path d="M394.684 246.649C391.843 239.899 381.245 220.543 354.083 224.304L353.823 224.347C360.87 225.743 378.583 229.986 380.887 237.805C383.771 247.6 353.199 228.467 350.933 243.271C349.549 252.344 305.421 236.051 303.772 250.065C303.383 253.381 302.494 255.709 301.363 257.346C305.551 259.255 307.997 255.635 306.453 249.855C350.568 262.293 380.677 258.266 394.684 246.649V246.649Z" fill="#F97A53"/>
<path d="M338.414 206.98C347.277 212.539 354.231 220.611 354.089 224.304C292.643 234.804 295.737 253.993 300.468 256.877C305.199 259.761 308.108 256.056 306.459 249.867C386.254 272.342 420.272 241.004 395.944 208.222C371.617 175.439 333.263 175.229 333.263 175.229" stroke="#111111" stroke-width="1.34" stroke-linecap="round"/>
<path d="M323.659 146.547C323.659 146.547 307.299 165.47 323.431 170.442C322.677 179.336 319.966 195.845 319.966 195.845C319.966 195.845 336.024 181.93 337.395 174.389C338.766 166.848 337.228 145.719 337.228 145.719C337.228 145.719 328.044 141.773 323.659 146.547Z" fill="#FC9E7A"/>
<path d="M337.407 174.389C338.599 167.787 337.574 150.759 337.302 146.627C335.604 145.981 333.686 146.36 332.361 147.603C332.361 147.603 339.303 150.401 336.962 155.323C334.622 160.246 334.078 165.742 335.591 168.497C336.938 170.967 330.113 183.468 321.794 183.863C320.88 190.274 319.941 195.845 319.941 195.845C319.941 195.845 336.048 181.918 337.407 174.389V174.389Z" fill="#F97A53"/>
<path fill-rule="evenodd" clip-rule="evenodd" d="M323.659 146.547C323.659 146.547 307.299 165.47 323.431 170.442C322.677 179.336 319.966 195.845 319.966 195.845C319.966 195.845 336.024 181.93 337.395 174.389C338.766 166.848 337.228 145.719 337.228 145.719C337.228 145.719 328.044 141.773 323.659 146.547Z" stroke="#111111" stroke-width="1.34"/>
<path d="M322.115 136.036C302.568 135.609 304.822 123.288 308.416 115.253C305.608 117.133 303.247 119.606 301.499 122.497C292.457 137.122 312.585 150.29 324.048 147.301C335.511 144.311 328.192 154.008 330.076 158.232C330.076 158.232 333.924 149.487 335.276 150.821C336.629 152.155 331.737 160.616 338.593 160.017C345.028 159.449 341.786 151.068 344.398 149.648C343.003 148.721 340.427 148.443 336.771 147.986C330.169 147.19 351.204 136.672 322.115 136.036V136.036Z" fill="#BC3C1E"/>
<path fill-rule="evenodd" clip-rule="evenodd" d="M330.076 158.232C330.076 158.232 333.924 149.487 335.276 150.821C336.629 152.155 331.737 160.616 338.593 160.017C345.448 159.418 341.31 149.913 345.004 149.462C348.697 149.011 358.159 140.908 353.897 131.823C349.525 122.497 341.317 131.823 335.956 122.096C328.872 109.243 310.547 107.848 301.499 122.473C292.451 137.098 312.585 150.265 324.048 147.276C335.511 144.287 328.192 154.008 330.076 158.232V158.232Z" stroke="#111111" stroke-width="1.34"/>
<path d="M332.374 167.502C332.374 167.502 329.773 171.826 323.443 170.442Z" fill="#FC9E7A"/>
<path d="M332.374 167.502C332.374 167.502 329.773 171.826 323.443 170.442" stroke="#111111" stroke-width="1.34" stroke-linecap="round"/>
<path d="M323.443 170.442C329.774 171.801 332.374 167.502 332.374 167.502C332.232 168.633 331.243 174.679 322.98 175.229C323.319 171.776 323.443 170.442 323.443 170.442Z" fill="#111111" stroke="#111111" stroke-width="1.34"/>
<path d="M322.115 198.241C321.164 198.778 320.207 199.291 319.243 199.766" stroke="#111111" stroke-width="1.34" stroke-linecap="round"/>
<path d="M326.617 195.443C325.769 196.011 324.909 196.565 324.036 197.104" stroke="#111111" stroke-width="1.34" stroke-linecap="round"/>
<path d="M337.098 175.55C337.098 175.55 340.804 175.432 340.89 179.873C340.946 182.09 338.297 185.685 334.264 189.421C332.401 191.128 330.44 192.724 328.39 194.201" stroke="#111111" stroke-width="1.34" stroke-linecap="round"/>
<path d="M315.013 194.887C314.963 195.999 314.932 197.179 314.92 198.426" stroke="#111111" stroke-width="1.34" stroke-linecap="round"/>
<path d="M322.22 174.969C322.22 174.969 316.526 175.26 315.186 191.904" stroke="#111111" stroke-width="1.34" stroke-linecap="round"/>
<path d="M281.322 240.85C281.322 240.85 291.34 221.895 291.618 198.426" stroke="#111111" stroke-width="1.34" stroke-linecap="round"/>
<path d="M281.489 240.522L281.316 240.856L281.489 240.522Z" fill="#FC3F3F" stroke="#111111" stroke-linecap="round"/>
<path d="M198.42 158.3C199.634 158.3 200.619 157.316 200.619 156.102C200.619 154.887 199.634 153.903 198.42 153.903C197.206 153.903 196.221 154.887 196.221 156.102C196.221 157.316 197.206 158.3 198.42 158.3Z" fill="white" stroke="#111111"/>
<path d="M206.394 158.3C207.608 158.3 208.592 157.316 208.592 156.102C208.592 154.887 207.608 153.903 206.394 153.903C205.179 153.903 204.195 154.887 204.195 156.102C204.195 157.316 205.179 158.3 206.394 158.3Z" fill="white" stroke="#111111"/>
<path d="M214.367 158.3C215.581 158.3 216.566 157.316 216.566 156.102C216.566 154.887 215.581 153.903 214.367 153.903C213.153 153.903 212.168 154.887 212.168 156.102C212.168 157.316 213.153 158.3 214.367 158.3Z" fill="white" stroke="#111111"/>
<path d="M281.322 156.101H273.194Z" fill="white"/>
<path d="M281.322 156.101H273.194" stroke="white"/>
<path d="M154.255 112.825H268.185V125.153H154.255V112.825Z" fill="#111111" stroke="#111111"/>
<path d="M161.388 121.187C162.603 121.187 163.587 120.203 163.587 118.989C163.587 117.774 162.603 116.79 161.388 116.79C160.174 116.79 159.19 117.774 159.19 118.989C159.19 120.203 160.174 121.187 161.388 121.187Z" fill="white" stroke="#111111"/>
<path d="M169.355 121.187C170.57 121.187 171.554 120.203 171.554 118.989C171.554 117.774 170.57 116.79 169.355 116.79C168.141 116.79 167.157 117.774 167.157 118.989C167.157 120.203 168.141 121.187 169.355 121.187Z" fill="white" stroke="#111111"/>
<path d="M177.329 121.187C178.543 121.187 179.527 120.203 179.527 118.989C179.527 117.774 178.543 116.79 177.329 116.79C176.114 116.79 175.13 117.774 175.13 118.989C175.13 120.203 176.114 121.187 177.329 121.187Z" fill="white" stroke="#111111"/>
<path d="M261.54 118.989H253.412Z" fill="white"/>
<path d="M261.54 118.989H253.412" stroke="white"/>
<path d="M91.9937 82.5811H241.227V94.9085H91.9937L91.9937 82.5811Z" fill="#111111" stroke="#111111"/>
<path d="M99.1209 90.9496C100.335 90.9496 101.32 89.9652 101.32 88.7509C101.32 87.5366 100.335 86.5522 99.1209 86.5522C97.9066 86.5522 96.9222 87.5366 96.9222 88.7509C96.9222 89.9652 97.9066 90.9496 99.1209 90.9496Z" fill="white" stroke="#111111"/>
<path d="M107.094 90.9496C108.309 90.9496 109.293 89.9652 109.293 88.7509C109.293 87.5366 108.309 86.5522 107.094 86.5522C105.88 86.5522 104.896 87.5366 104.896 88.7509C104.896 89.9652 105.88 90.9496 107.094 90.9496Z" fill="white" stroke="#111111"/>
<path d="M115.068 90.9496C116.282 90.9496 117.266 89.9652 117.266 88.7509C117.266 87.5366 116.282 86.5522 115.068 86.5522C113.853 86.5522 112.869 87.5366 112.869 88.7509C112.869 89.9652 113.853 90.9496 115.068 90.9496Z" fill="white" stroke="#111111"/>
<path d="M233.525 88.7512H225.404Z" fill="white"/>
<path d="M233.525 88.7512H225.404" stroke="white"/>
<path d="M231.407 171.967H277.258Z" fill="white"/>
<path d="M231.407 171.967H277.258" stroke="#111111"/>
<path d="M251.306 180.454H277.258Z" fill="white"/>
<path d="M251.306 180.454H277.258" stroke="#111111"/>
<path d="M245.809 133.441H265.591Z" fill="white"/>
<path d="M245.809 133.441H265.591" stroke="#111111"/>
<path d="M234.285 138.666H265.591Z" fill="white"/>
<path d="M234.285 138.666H265.591" stroke="#111111"/>
<path d="M259.452 188.977H277.258Z" fill="white"/>
<path d="M259.452 188.977H277.258" stroke="#111111"/>
<path d="M231.407 180.454H244.037Z" fill="white"/>
<path d="M231.407 180.454H244.037" stroke="#111111"/>
<path d="M207.709 145.694C209.65 145.694 211.223 144.121 211.223 142.18C211.223 140.239 209.65 138.666 207.709 138.666C205.768 138.666 204.195 140.239 204.195 142.18C204.195 144.121 205.768 145.694 207.709 145.694Z" fill="white" stroke="#111111"/>
<path d="M253.06 270.279H212.162" stroke="#111111"/>
<path d="M253.06 277.085H234.285" stroke="#111111"/>
<path d="M195.474 173.796H219.944V191.429H195.474V173.796Z" fill="#111111" stroke="#111111"/>
<path d="M198.42 171.338H222.89V188.971H198.42V171.338Z" fill="white" stroke="#111111"/>
<path d="M204.195 104.302H234.285" stroke="#111111"/>
<path d="M109.521 178.527H139.618" stroke="#111111"/>
<path d="M106.464 249.453H142.335" stroke="#111111"/>
<path d="M106.464 240.85H124.573" stroke="#111111"/>
<path d="M106.464 257.877H142.335" stroke="#111111"/>
<path d="M106.464 266.295H142.335" stroke="#111111"/>
<path d="M106.464 274.714H142.335" stroke="#111111"/>
<path d="M106.464 283.132H142.335" stroke="#111111"/>
<path d="M106.464 291.55H142.335" stroke="#111111"/>
<path d="M222.884 108.428H234.285" stroke="#111111"/>
<path d="M270.897 373.463C281.127 375.028 291.55 374.819 301.709 372.845Z" fill="#F9B132"/>
<path d="M270.897 373.463C281.127 375.028 291.55 374.819 301.709 372.845" stroke="#111111"/>
<path d="M308.942 371.122C318.637 368.394 327.586 363.496 335.11 356.8" stroke="#111111"/>
<path d="M97.7992 346.362H142.335V371.122H97.7992V346.362Z" fill="white" stroke="#111111"/>
<path d="M110.324 346.362H142.335V371.122H110.324L110.324 346.362Z" fill="#111111" stroke="#111111"/>
<path fill-rule="evenodd" clip-rule="evenodd" d="M434.959 239.812L442.919 237.21C447.111 235.84 451.62 238.128 452.991 242.32C454.361 246.512 452.073 251.021 447.881 252.391L439.921 254.993L434.959 239.812Z" stroke="#111111"/>
<path d="M436.583 232.339V250.503C436.587 255.734 433.084 260.318 428.035 261.688C429.019 261.961 430.035 262.1 431.055 262.101C437.461 262.101 442.654 256.909 442.654 250.503V232.339H436.583Z" fill="#111111" stroke="#111111"/>
<path d="M436.583 250.503V232.339H419.444V250.503C419.445 255.747 422.97 260.335 428.035 261.688C433.084 260.318 436.587 255.734 436.583 250.503V250.503Z" fill="#FC56BD"/>
<path fill-rule="evenodd" clip-rule="evenodd" d="M419.444 232.339H442.636V250.509C442.636 256.915 437.443 262.108 431.037 262.108C424.631 262.108 419.438 256.915 419.438 250.509V232.339H419.444Z" stroke="#111111" stroke-width="1.34"/>
<path d="M441.073 233.538C442.061 233.05 442.636 232.481 442.636 231.876C442.636 230.023 437.441 228.56 431.037 228.56C424.632 228.56 419.444 230.042 419.444 231.876C419.444 232.494 420.019 233.05 421.007 233.538C423.014 232.543 426.751 231.876 431.037 231.876C435.323 231.876 439.066 232.562 441.073 233.538Z" fill="white" stroke="#111111" stroke-width="1.34"/>
<path d="M431.037 235.199C436.576 235.199 441.067 234.455 441.067 233.537C441.067 232.62 436.576 231.876 431.037 231.876C425.497 231.876 421.007 232.62 421.007 233.537C421.007 234.455 425.497 235.199 431.037 235.199Z" fill="#E5592E" stroke="#111111" stroke-width="1.34"/>
<path d="M437.75 146.003C447.459 153.106 456.791 166.415 450.874 173.963C443.142 183.844 426.133 183.017 439.794 194.887C449.059 202.947 437.8 204.003 430.086 209.605C429.981 209.809 429.882 210.013 429.752 210.222C422.792 221.692 431.556 225.953 431.556 225.953C430.005 207.536 460.929 210.871 447.274 198.994C433.618 187.118 450.621 187.933 458.354 178.07C465.833 168.534 448.96 149.802 437.75 146.003Z" fill="#F9AC30"/>
<path d="M439.77 194.887C426.108 183.017 443.117 183.826 450.85 173.963C456.766 166.416 447.434 153.106 437.726 146.004C437.349 145.88 436.978 145.763 436.614 145.67C425.46 142.841 415.294 152.63 431.531 165.884C447.768 179.138 420.192 171.183 417.097 185.358C414.065 199.266 435.823 198.791 430.067 209.605C437.8 204.003 449.034 202.947 439.77 194.887V194.887Z" fill="#F9C764"/>
<path fill-rule="evenodd" clip-rule="evenodd" d="M431.556 225.953C431.556 225.953 422.792 221.692 429.752 210.223C436.713 198.754 414.028 199.532 417.122 185.358C420.216 171.183 447.799 179.132 431.556 165.86C415.312 152.587 425.485 142.817 436.639 145.645C447.793 148.474 466.086 168.182 458.354 178.045C450.621 187.908 433.594 187.124 447.274 198.994C460.954 210.865 430.005 207.536 431.556 225.953V225.953Z" stroke="#111111" stroke-width="1.34"/>
<path d="M325.444 155.385C326.805 155.385 327.908 154.97 327.908 154.459C327.908 153.947 326.805 153.532 325.444 153.532C324.083 153.532 322.98 153.947 322.98 154.459C322.98 154.97 324.083 155.385 325.444 155.385Z" fill="white" stroke="#161515" stroke-width="1.34"/>
<path d="M324.561 153.594C323.634 153.73 322.98 154.063 322.98 154.458C322.98 154.854 323.634 155.187 324.561 155.323C325.073 155.187 325.444 154.854 325.444 154.458C325.444 154.063 325.073 153.73 324.561 153.594Z" fill="#161515"/>
<path d="M316.711 155.385C318.072 155.385 319.175 154.97 319.175 154.459C319.175 153.947 318.072 153.532 316.711 153.532C315.35 153.532 314.247 153.947 314.247 154.459C314.247 154.97 315.35 155.385 316.711 155.385Z" fill="white" stroke="#161515" stroke-width="1.34"/>
<path d="M315.828 153.594C314.901 153.73 314.241 154.063 314.241 154.458C314.241 154.854 314.901 155.187 315.828 155.323C316.34 155.187 316.711 154.854 316.711 154.458C316.711 154.063 316.34 153.73 315.828 153.594Z" fill="#161515"/>
<path d="M321.152 154.458C320.574 156.006 319.798 157.472 318.842 158.819C318.69 158.984 318.639 159.218 318.71 159.431C318.78 159.644 318.961 159.802 319.181 159.844C320.244 160.005 321.479 160.073 321.479 160.073" stroke="#161515" stroke-linecap="round"/>
<path d="M318.366 164.093C318.366 164.093 321.281 165.643 325.444 163.476" stroke="#161515" stroke-linecap="round"/>
<path d="M185.5 465.308C185.5 465.308 190.169 450.739 203.645 444.686C217.121 438.633 201.132 418.308 216.133 414.997C231.135 411.687 208.314 400.02 219.178 397.198C230.042 394.375 239.257 408.401 232.586 415.819C225.916 423.236 218.449 430.994 226.305 434.817C234.161 438.64 225.348 473.473 208.036 479.284C190.725 485.096 165.977 502.42 185.5 465.308V465.308Z" fill="#111111" stroke="#111111"/>
<path d="M325.444 161.722C325.07 162.864 325.598 164.106 326.679 164.631" stroke="#161515" stroke-linecap="round"/>
<path d="M233.266 472.454C233.266 472.454 235.464 448.849 251.034 452.11C277.258 457.606 247.329 476.851 245.809 491.019C244.821 500.228 267.895 489.883 267.247 510.295C250.651 510.362 171.369 510.295 171.369 510.295C171.369 510.295 172.993 471.354 233.266 472.454V472.454Z" fill="#111111" stroke="#111111"/>
<path d="M187.081 481.075C187.081 481.075 153.73 471.941 147.961 488.419C142.193 504.897 118.545 492.174 116.346 510.356C144.385 510.393 180.577 510.356 180.577 510.356C180.577 510.356 215.479 491.075 187.081 481.075Z" fill="#111111" stroke="#111111"/>
<path d="M353.922 131.848C349.549 122.522 341.341 131.848 335.98 122.121C333.429 117.354 328.98 113.888 323.734 112.58C318.488 111.271 312.933 112.242 308.441 115.253C304.853 123.282 302.592 135.634 322.14 136.035C351.229 136.653 330.169 147.189 336.796 148.011C340.452 148.468 343.027 148.746 344.423 149.672C344.616 149.573 344.825 149.511 345.041 149.487C348.697 149.036 358.159 140.933 353.922 131.848V131.848Z" fill="#E5592E"/>
<path d="M200.341 480.149C224.428 479.328 243.839 461.701 225.045 432.797C219.771 434.267 215.96 439.961 218.462 449.67C223.699 469.983 207.345 468.513 188.946 475.64C166.44 484.373 183.943 504.051 183.943 504.051C184.079 503.513 184.221 503.007 184.363 502.5C184.505 501.994 176.149 480.977 200.341 480.149V480.149Z" fill="#A1E23B" stroke="#111111" stroke-width="1.34"/>
<path d="M148.258 472.478C148.258 472.478 161.055 453.672 146.084 429.789C131.113 405.906 147.023 385.809 154.767 395.611C162.512 405.412 142.483 414.429 158.238 420.204C173.994 425.979 195.357 442.852 180.472 459.941C165.588 477.03 158.56 487.746 148.258 472.478V472.478Z" fill="#111111" stroke="#111111" stroke-width="1.34"/>
<path d="M126.327 445.168C154.502 463.517 155.323 450.528 169.139 477.333C170.374 479.717 171.536 481.891 172.641 483.898C172.165 480.632 172.331 477.305 173.129 474.103C177.582 455.951 173.401 446.526 146.732 442.129C120.558 437.806 125.641 409.476 117.773 408.432C112.999 414.639 104.167 430.734 126.327 445.168V445.168Z" fill="#7FD335" stroke="#111111" stroke-width="1.34"/>
<path d="M130.792 471.082C164.958 480.698 162.129 504.069 185.5 505.168C185.5 505.168 174.5 496.725 172.641 483.898C171.536 481.89 170.368 479.716 169.139 477.332C155.323 450.528 154.502 463.516 126.327 445.167C104.167 430.734 112.999 414.639 117.773 408.432C117.623 408.422 117.472 408.422 117.322 408.432C108.799 408.401 79.6538 456.785 130.792 471.082V471.082Z" fill="#A1E23B" stroke="#111111" stroke-width="1.34"/>
<path d="M222.587 486.72C244.204 483.25 246.841 460.244 241.233 443.407C238.312 434.619 230.808 431.191 225.045 432.797C243.839 461.701 224.428 479.328 200.341 480.149C176.149 480.977 184.363 502.488 184.363 502.488C189.866 483.157 201.521 490.105 222.587 486.72Z" fill="#7FD335" stroke="#111111" stroke-width="1.34"/>
<path d="M174.778 477.95C179.175 464.758 203.627 446.335 190.99 430.944C178.354 415.553 202.54 403.152 189.07 390.256C185.911 387.165 182.596 384.238 179.138 381.486C177.286 383.771 177.706 387.662 182.776 393.066C195.697 406.876 153.909 414.997 169.337 427.374C184.765 439.751 182.776 450.189 169.578 469.989C156.379 489.79 185.524 505.193 185.524 505.193C185.327 504.989 185.135 504.773 184.944 504.576C184.593 504.47 184.263 504.305 183.968 504.088C183.968 504.088 170.375 491.149 174.778 477.95V477.95Z" fill="#A1E23B" stroke="#111111" stroke-width="1.34"/>
<path d="M199.242 464.783C221.235 450.763 218.215 435.366 209.963 433.989C201.712 432.611 191.818 425.466 198.97 416.121C206.122 406.777 205.566 390.281 196.221 382.832C190.539 378.305 182.016 377.978 179.114 381.51C182.58 384.262 185.903 387.189 189.07 390.281C202.54 403.201 178.348 415.572 190.99 430.969C203.633 446.366 179.175 464.783 174.778 477.95C170.381 491.118 183.943 504.044 183.943 504.044C184.239 504.261 184.569 504.426 184.919 504.532C177.008 495.546 177.761 478.451 199.242 464.783Z" fill="#7FD335" stroke="#111111" stroke-width="1.34"/>
<path d="M152.686 510.325H223.816C223.816 510.325 214.954 490.562 204.053 495.892C193.152 501.222 185.086 501.666 176.013 491.05C166.941 480.433 145.701 485.374 153.742 495.064C161.784 504.755 138.302 496.096 136.634 510.325H152.686Z" fill="#61AA1B" stroke="#111111" stroke-width="1.34"/>
<path d="M403.664 491.05C403.664 491.05 428.653 480.699 413.898 462.559C399.143 444.42 440.511 432.297 447.039 456.785C453.567 481.273 486.566 454.493 495.361 468.421C504.156 482.348 490.42 497.226 514.606 494.459C538.791 491.692 532.195 510.369 532.195 510.369H403.664V491.05Z" fill="#111111" stroke="#111111" stroke-width="1.34"/>
<path d="M403.664 510.369H501.376C501.097 502.073 496.219 494.624 488.728 491.05C475.875 484.769 490.346 464.363 474.967 451.912C459.589 439.461 443.092 448.824 446.94 462.01C450.788 475.196 439.245 481.075 421.001 468.421C404.226 456.754 384.222 481.829 394.684 494.459C405.146 507.089 375.458 497.152 374.921 510.369C391.961 509.868 403.664 510.369 403.664 510.369Z" fill="#7FD335"/>
<path d="M488.728 491.05C475.875 484.769 490.346 464.363 474.967 451.912C469.977 447.873 464.869 446.137 460.379 446.076C465.506 452.82 468.705 463.066 460.207 476.697C443.642 503.254 416.134 468.402 419.444 491.05C422.304 510.634 405.801 502.167 397.741 510.196C401.521 510.264 403.664 510.357 403.664 510.357H501.376C501.092 502.065 496.216 494.622 488.728 491.05V491.05Z" fill="#61AA1B"/>
<path fill-rule="evenodd" clip-rule="evenodd" d="M403.664 510.369H501.376C501.097 502.073 496.22 494.624 488.728 491.05C475.875 484.769 490.346 464.363 474.967 451.912C459.589 439.461 443.093 448.824 446.94 462.01C450.788 475.196 439.245 481.075 421.001 468.421C404.226 456.754 384.222 481.829 394.684 494.459C405.147 507.089 375.458 497.152 374.921 510.369C391.961 509.868 403.664 510.369 403.664 510.369Z" stroke="#111111"/>
<path d="M473.201 464.036C473.201 473.399 468.804 486.998 477.185 491.05C487.906 496.232 484.726 505.996 484.726 505.996" stroke="#111111" stroke-linecap="round"/>
<path d="M471.824 447.533C472.408 448.508 472.792 449.589 472.954 450.714" stroke="#111111" stroke-linecap="round"/>
<path d="M465.654 442.938C466.886 443.378 468.053 443.98 469.125 444.729" stroke="#111111" stroke-linecap="round"/>
<path d="M397.519 472.985C397.2 474.745 397.086 476.535 397.179 478.321" stroke="#111111" stroke-linecap="round"/>
<path d="M405.635 460.799C402.721 462.566 400.411 465.174 399.008 468.279" stroke="#111111" stroke-linecap="round"/>
<path d="M348.678 385.198C349.3 387.643 350.054 390.141 350.939 392.689" stroke="white"/>
<path d="M366.12 313.672C366.12 313.672 340.18 338.506 347.289 378.768" stroke="white"/>
<path d="M213.397 337.704C213.397 337.704 212.304 354.021 222.884 365.447" stroke="white"/>
<path d="M432.692 342.861H449.287C458.06 342.861 465.172 349.973 465.172 358.746C465.162 367.512 458.053 374.612 449.287 374.612H432.692V342.861V342.861Z" fill="white" stroke="#111111"/>
<path d="M432.692 374.31C441.376 374.31 448.416 367.27 448.416 358.585C448.416 349.901 441.376 342.861 432.692 342.861C424.008 342.861 416.968 349.901 416.968 358.585C416.968 367.27 424.008 374.31 432.692 374.31Z" fill="#111111" stroke="#111111"/>
<path fill-rule="evenodd" clip-rule="evenodd" d="M356.93 111.609C363.851 111.609 369.461 105.999 369.461 99.0777C369.461 92.1568 363.851 86.5464 356.93 86.5464C350.009 86.5464 344.399 92.1568 344.399 99.0777C344.399 105.999 350.009 111.609 356.93 111.609Z" stroke="white"/>
<path d="M82.9519 206.98V264.498" stroke="white"/>
<path d="M82.9519 184.876V196.265" stroke="white"/>
<path d="M553.058 510.325H36.767" stroke="#111111"/>
</svg>
